<?xml version="1.0" encoding="utf-8"?>
<!-- Generator: Adobe Illustrator 22.1.0, SVG Export Plug-In . SVG Version: 6.00 Build 0)  -->
<svg version="1.1" id="Layer_2_1_" xmlns="http://www.w3.org/2000/svg" xmlns:xlink="http://www.w3.org/1999/xlink" x="0px" y="0px"
	 width="256px" height="255px" viewBox="0 0 256 255" style="enable-background:new 0 0 256 255;" xml:space="preserve">
<path d="M0,0v255h256V0H0z M32.9,59.3V60l-0.1,0.8l-0.2,0.8l-0.3,0.8l-0.2,0.8l-0.4,0.7l-0.5,0.7l-0.6,0.7L30,65.9l-0.7,0.5
	l-0.7,0.4l-0.7,0.3l-0.7,0.3l-0.7,0.2l-0.7,0.1h-0.7h-0.7l-0.7-0.1L23,67.4l-0.9-0.2l-0.7-0.3l-0.7-0.4l-0.6-0.6l-0.6-0.6l-0.6-0.7
	l-0.5-0.7L18,63.2l-0.3-0.8l-0.3-0.8l-0.2-0.8V60v-0.8V32.9v-0.8l0.1-0.8l0.1-0.8l0.2-0.8l0.2-0.8l0.2-0.8l0.3-0.8l0.3-0.8l0.3-0.8
	l0.4-0.8l0.4-0.7l0.5-0.7l0.5-0.7l0.5-0.7l0.6-0.6l0.6-0.6l0.6-0.6l0.7-0.5l0.7-0.5l0.7-0.5l0.7-0.4l0.7-0.4l0.7-0.3l0.7-0.3
	l0.7-0.3l0.7-0.2l0.7-0.2l0.7-0.2l0.7-0.1h0.7h0.7L32.9,59.3z M17.9,119l0.7-0.1l0.7-0.2l0.7-0.3l0.7-0.4l0.7-0.4l0.7-0.5l0.6-0.6
	l0.5-0.6l0.5-0.7l0.4-0.7l0.3-0.8l0.2-0.8l0.2-0.8l0.1-0.8v-0.8v0.8l0.1,0.8l0.2,0.8l0.3,0.8l0.3,0.8l0.4,0.7l0.5,0.7l0.5,0.6
	l0.6,0.6l0.6,0.5l0.7,0.4l0.7,0.4l0.7,0.3l0.8,0.2l0.8,0.1h0.8v17h-0.8l-0.8,0.1l-0.8,0.2l-0.7,0.3l-0.7,0.4l-0.7,0.4l-0.6,0.5
	l-0.6,0.6l-0.5,0.6l-0.5,0.7l-0.4,0.7l-0.3,0.8l-0.3,0.8l-0.2,0.8l-0.1,0.8v0.8v-0.8l-0.1-0.8l-0.2-0.8l-0.2-0.8l-0.3-0.8l-0.4-0.7
	l-0.5-0.7l-0.5-0.7l-0.6-0.6l-0.7-0.5l-0.7-0.4l-0.7-0.4l-0.7-0.3l-0.7-0.2l-0.7-0.1h-0.8V119H17.9z M48,59.3h0.7v35V95l-0.1,0.8
	l-0.1,0.8l-0.2,0.8l-0.2,0.8L47.9,99l-0.3,0.8l-0.3,0.8l-0.3,0.8l-0.4,0.8l-0.4,0.7l-0.5,0.7l-0.4,0.7l-0.5,0.7l-0.6,0.6l-0.6,0.6
	l-0.6,0.6l-0.7,0.5l-0.7,0.5l-0.7,0.5l-0.7,0.4l-0.7,0.4l-0.7,0.3l-0.7,0.3l-0.7,0.3l-0.7,0.2l-0.7,0.2l-0.7,0.1l-0.7,0.1h-0.7h-0.7
	v-35v-0.8l0-0.8l0.1-0.8l0.2-0.8l0.2-0.8l0.2-0.8l0.3-0.8l0.3-0.8l0.4-0.8l0.4-0.8l0.4-0.7l0.5-0.7l0.5-0.7l0.5-0.7l0.6-0.6l0.6-0.6
	L39,63l0.7-0.5l0.5-0.5l0.7-0.5l0.7-0.4l0.7-0.4l0.7-0.3l0.7-0.3l0.7-0.3l0.7-0.2l0.7-0.2l0.7-0.1l0.7-0.1L48,59.3z M64.6,50.7h-0.8
	l-0.8,0.1l-0.7,0.3l-0.7,0.3l-0.7,0.4l-0.7,0.4l-0.6,0.5l-0.6,0.6l-0.5,0.6l-0.5,0.7l-0.4,0.7L57.2,56l-0.3,0.8l-0.2,0.8l-0.1,0.8
	v0.8v-0.8l-0.1-0.8l-0.2-0.8L56,56l-0.3-0.8l-0.4-0.7l-0.5-0.7l-0.6-0.7l-0.6-0.6L52.9,52l-0.7-0.4l-0.7-0.4L51,51l-0.8-0.2
	l-0.7-0.1h-0.7v-34h0.7h0.7l0.7,0.1l0.7,0.1l0.8,0.2l0.7,0.2l0.7,0.3l0.7,0.3l0.7,0.3l0.7,0.4l0.7,0.4l0.7,0.5L58,20l0.6,0.5
	l0.6,0.6l0.6,0.6l0.6,0.6l0.5,0.7l0.5,0.7l0.5,0.7l0.4,0.7l0.4,0.8l0.3,0.8l0.3,0.8l0.3,0.8l0.2,0.8l0.2,0.8l0.2,0.8l0.1,0.8
	l0.1,0.8v0.8v0.8L64.6,50.7z M48.8,109.7l0.1-0.8l0.2-0.8l0.3-0.8l0.3-0.8l0.4-0.7l0.5-0.7l0.6-0.7l0.6-0.6l0.7-0.5l0.7-0.4l0.7-0.3
	l0.7-0.3l0.7-0.2L56,102h0.7h0.7l0.7,0.1l0.7,0.2l0.7,0.3l0.7,0.3l0.7,0.4l0.7,0.5l0.6,0.6l0.6,0.7l0.5,0.7l0.4,0.7l0.3,0.8l0.2,0.8
	l0.2,0.8l0.1,0.8v0.8v34.1v0.8l-0.1,0.8l-0.2,0.8l-0.2,0.8l-0.3,0.8l-0.4,0.7l-0.5,0.7l-0.6,0.6l-0.6,0.6l-0.7,0.5l-0.7,0.4
	l-0.7,0.4l-0.7,0.3l-0.7,0.2l-0.7,0.1h-0.7H56l-0.7-0.1l-0.7-0.2l-0.7-0.3l-0.7-0.4l-0.7-0.4l-0.7-0.5l-0.6-0.6l-0.6-0.6l-0.5-0.7
	l-0.4-0.7l-0.3-0.8l-0.3-0.8l-0.2-0.8l-0.1-0.8v-0.8v-34.1C48.8,110.5,48.8,109.7,48.8,109.7z M80.4,75.6v34.8h-0.7H79l-0.7-0.1
	l-0.7-0.1l-0.7-0.2l-0.7-0.2l-0.7-0.2l-0.7-0.3l-0.7-0.3l-0.7-0.4l-0.7-0.4l-0.7-0.5l-0.7-0.5l-0.6-0.5l-0.6-0.6l-0.6-0.6l-0.6-0.6
	l-0.5-0.7l-0.5-0.7l-0.5-0.7l-0.4-0.7l-0.4-0.8l-0.4-0.8l-0.3-0.8l-0.3-0.8l-0.2-0.8l-0.2-0.8L65,96.5l-0.1-0.8l-0.1-0.8v-0.8V59.3
	h0.7h0.7l0.7,0.1l0.7,0.1l0.7,0.2l0.7,0.2l0.7,0.3l0.7,0.3l0.7,0.3l0.7,0.4l0.7,0.4l0.8,0.4l0.7,0.5l0.6,0.5l0.6,0.6l0.6,0.6
	l0.6,0.6l0.5,0.7l0.5,0.7l0.5,0.7l0.4,0.7l0.4,0.8l0.3,0.8l0.3,0.8l0.3,0.8l0.2,0.8l0.2,0.8l0.2,0.8l0.1,0.8l0.1,0.8V75.6z
	 M96.4,59.3V60l-0.1,0.8l-0.2,0.8l-0.2,0.8l-0.3,0.8L95,64l-0.5,0.7L94,65.4l-0.6,0.5l-0.7,0.5L92,66.8l-0.7,0.3l-0.7,0.3l-0.7,0.2
	l-0.7,0.1h-0.8h-0.7l-0.7-0.1l-0.6-0.1l-0.7-0.3l-0.7-0.3l-0.7-0.4L83.5,66l-0.6-0.6l-0.6-0.8l-0.5-0.7l-0.4-0.7l-0.3-0.8l-0.2-0.8
	l-0.2-0.8L80.6,60v-0.8V32.9v-0.8v-0.8l0.1-0.8l0.2-0.8l0.2-0.8l0.2-0.8l0.3-0.8l0.3-0.8l0.4-0.8l0.4-0.8l0.4-0.7l0.5-0.7l0.5-0.7
	l0.5-0.7l0.6-0.6l0.6-0.6l0.6-0.6l0.6-0.5l0.7-0.6l0.7-0.5l0.7-0.4l0.7-0.4l0.7-0.3l0.7-0.3L92,17l0.7-0.2l0.7-0.2l0.7-0.1l0.7-0.1
	h0.7h0.7L96.4,59.3z M81.3,119l0.7-0.1l0.7-0.2l0.7-0.3l0.7-0.4l0.7-0.4l0.7-0.5l0.6-0.6l0.6-0.6l0.5-0.7l0.4-0.7l0.3-0.8l0.3-0.8
	l0.1-0.9l0.1-0.8v-0.8v0.8l0.1,0.8l0.2,0.8l0.3,0.8l0.3,0.8l0.4,0.7l0.5,0.7l0.5,0.6l0.6,0.6l0.6,0.5l0.7,0.4l0.7,0.4l0.7,0.3
	l0.8,0.2l0.8,0.1h0.7V136h-0.8l-0.8,0.1l-0.8,0.2l-0.7,0.3l-0.7,0.4l-0.7,0.4l-0.5,0.6l-0.6,0.6l-0.5,0.6l-0.5,0.7l-0.5,0.8
	l-0.3,0.8l-0.3,0.8l-0.2,0.8l-0.1,0.8v0.8v-0.8l-0.1-0.8l-0.2-0.8l-0.3-0.8l-0.3-0.8L87,140l-0.5-0.7l-0.6-0.7l-0.6-0.6l-0.7-0.5
	l-0.7-0.4l-0.7-0.4l-0.7-0.3l-0.8-0.2l-0.7-0.1h-0.7V119H81.3z M111.3,59.3h0.7v34.9V95l-0.1,0.8l-0.1,0.8l-0.2,0.8l-0.2,0.8
	l-0.2,0.8l-0.3,0.8l-0.3,0.8l-0.4,0.8l-0.4,0.8l-0.4,0.7l-0.5,0.7l-0.5,0.7l-0.5,0.7l-0.6,0.6l-0.6,0.6l-0.5,0.6l-0.6,0.5l-0.7,0.5
	l-0.7,0.5l-0.7,0.4l-0.7,0.4l-0.7,0.3l-0.7,0.3l-0.7,0.3l-0.7,0.2l-0.7,0.2l-0.7,0.1l-0.7,0.1h-0.7h-0.8v-35v-0.8l0.1-0.8l0.1-0.8
	l0.1-0.8l0.2-0.8l0.2-0.8l0.3-0.8l0.3-0.8l0.3-0.8l0.4-0.8l0.4-0.7l0.5-0.7l0.5-0.7l0.5-0.7l0.6-0.6l0.6-0.6l0.6-0.6l0.6-0.5
	l0.7-0.5l0.7-0.5l0.7-0.4l0.7-0.4l0.7-0.3l0.7-0.3l0.7-0.3l0.7-0.2l0.7-0.2l0.7-0.1l0.7-0.1L111.3,59.3z M128.1,50.8h-0.8l-0.8,0.1
	l-0.8,0.2l-0.7,0.3l-0.7,0.4l-0.7,0.4l-0.6,0.5l-0.6,0.6l-0.5,0.6l-0.5,0.7l-0.4,0.7l-0.5,0.7l-0.3,0.8l-0.2,0.8l-0.1,0.8v0.8v-0.8
	l-0.1-0.8l-0.2-0.8l-0.2-0.8l-0.3-0.8l-0.4-0.7l-0.5-0.7l-0.5-0.7l-0.6-0.6l-0.7-0.5l-0.7-0.4l-0.7-0.4l-0.7-0.3l-0.7-0.2l-0.7-0.1
	h-0.7v-34h0.7h0.7l0.7,0.1l0.7,0.1l0.7,0.2l0.7,0.2l0.7,0.3l0.7,0.3l0.7,0.3l0.7,0.4l0.7,0.4l0.7,0.5l0.7,0.5l0.7,0.5l0.6,0.6
	l0.6,0.6l0.6,0.6l0.5,0.6l0.4,0.8l0.5,0.7l0.5,0.7l0.4,0.8l0.4,0.7l0.3,0.8l0.3,0.8l0.4,0.9l0.2,0.8l0.2,0.8l0.1,0.8l0.1,0.8V33v0.8
	V50.8z M112.2,109.6l0.1-0.8l0.2-0.8l0.2-0.8l0.3-0.8l0.4-0.7l0.5-0.7l0.5-0.5l0.6-0.6l0.7-0.5l0.7-0.4l0.7-0.3l0.7-0.3l0.7-0.2
	l0.7-0.1h0.7h0.7h0.7l0.7,0.2l0.7,0.3l0.7,0.3l0.7,0.4l0.7,0.5l0.6,0.6l0.6,0.7l0.5,0.7l0.4,0.7l0.3,0.8l0.3,0.8l0.2,0.8l0.1,0.8
	v0.8v34.1v0.8v0.8l-0.2,0.8l-0.3,0.8l-0.3,0.8l-0.4,0.7l-0.5,0.7l-0.6,0.6l-0.6,0.6l-0.7,0.5l-0.7,0.4l-0.7,0.4l-0.7,0.3l-0.8,0.1
	l-0.7,0.1H120h-0.7l-0.7-0.1l-0.7-0.2l-0.7-0.3l-0.7-0.4l-0.7-0.4l-0.7-0.5l-0.6-0.6l-0.5-0.6l-0.5-0.7l-0.4-0.7l-0.3-0.8l-0.2-0.8
	l-0.2-0.8l-0.1-0.8v-0.8v-34.1L112.2,109.6z M143.9,75.6v0.8v34h-0.7h-0.7l-0.7-0.1l-0.7-0.1l-0.7-0.2l-0.7-0.2l-0.7-0.2l-0.7-0.3
	l-0.7-0.3l-0.7-0.4l-0.7-0.4l-0.7-0.5l-0.7-0.5l-0.7-0.5l-0.6-0.6l-0.6-0.6l-0.6-0.6l-0.5-0.7l-0.5-0.7l-0.5-0.7l-0.4-0.7l-0.4-0.8
	l-0.3-0.8l-0.3-0.8l-0.3-0.8l-0.2-0.8l-0.2-0.8l-0.2-0.8l-0.1-0.8l-0.1-0.8v-0.8V59.3h0.7h0.7l0.7,0.1l0.7,0.1l0.7,0.2l0.7,0.2
	l0.7,0.3l0.7,0.3l0.7,0.3l0.7,0.4l0.7,0.4l0.7,0.5l0.7,0.5l0.7,0.5l0.6,0.6l0.6,0.6l0.6,0.6l0.5,0.7l0.5,0.7l0.5,0.7l0.4,0.7
	l0.4,0.8l0.4,0.8l0.3,0.8l0.3,0.8l0.2,0.8l0.2,0.8l0.2,0.8l0.1,0.8l0.1,0.8L143.9,75.6z M159.5,59.3V60l-0.1,0.8l-0.1,0.9l-0.3,0.8
	l-0.3,0.8l-0.4,0.7l-0.5,0.7l-0.6,0.6l-0.6,0.6l-0.7,0.5l-0.7,0.4l-0.7,0.3l-0.7,0.3l-0.7,0.2l-0.7,0.1h-0.7H151l-0.7-0.1l-0.7-0.2
	l-0.7-0.3l-0.7-0.3l-0.7-0.4l-0.7-0.5l-0.6-0.6l-0.6-0.7l-0.5-0.7l-0.4-0.7l-0.3-0.8l-0.3-0.8l-0.2-0.8l-0.1-0.8v-0.8V32.9v-0.8
	l0.1-0.8l0.1-0.8l0.2-0.8l0.2-0.8l0.2-0.8l0.3-0.8l0.3-0.8l0.4-0.8l0.4-0.8l0.4-0.7l0.5-0.7l0.5-0.7l0.5-0.7l0.6-0.6l0.6-0.6
	l0.6-0.6l0.7-0.5l0.7-0.5l0.7-0.5l0.7-0.4l0.7-0.4l0.7-0.3l0.7-0.3l0.7-0.3l0.7-0.2l0.7-0.2l0.7-0.1l0.7-0.1h0.7h0.7L159.5,59.3z
	 M144.7,119l0.7-0.1l0.7-0.2l0.7-0.3l0.7-0.4l0.7-0.4l0.7-0.5l0.6-0.6l0.6-0.6l0.5-0.7l0.4-0.7l0.3-0.8l0.3-0.8l0.2-0.8l0.1-0.8
	v-0.8v0.8l0.1,0.8l0.2,0.8l0.3,0.8l0.3,0.8l0.4,0.7l0.5,0.7l0.5,0.6l0.6,0.6l0.6,0.5l0.7,0.4l0.7,0.4l0.7,0.3l0.8,0.2l0.8,0.1h0.8
	v17h-0.8l-0.8,0.1l-0.8,0.2l-0.8,0.3L156,137l-0.7,0.4l-0.7,0.6l-0.6,0.6l-0.5,0.6l-0.5,0.7l-0.4,0.7l-0.3,0.8l-0.3,0.8l-0.2,0.8
	l-0.1,0.8v0.8v-0.8l-0.1-0.8l-0.2-0.8l-0.2-0.8l-0.3-0.8l-0.4-0.7l-0.5-0.7l-0.5-0.7l-0.6-0.6l-0.7-0.5l-0.7-0.4l-0.7-0.4l-0.7-0.3
	l-0.7-0.2l-0.8-0.1h-0.7v-17H144.7z M174.8,59.3h0.7v34.9V95l-0.1,0.8l-0.1,0.8l-0.2,0.8l-0.3,0.8l-0.2,0.8l-0.3,0.8l-0.3,0.8
	l-0.3,0.8l-0.3,0.8l-0.4,0.7l-0.5,0.7l-0.5,0.6l-0.5,0.7l-0.6,0.6l-0.6,0.6l-0.6,0.6l-0.6,0.5l-0.7,0.5l-0.7,0.5l-0.7,0.4l-0.7,0.4
	l-0.7,0.3l-0.7,0.3l-0.7,0.4l-0.7,0.2l-0.7,0.2l-0.7,0.1l-0.7,0.1h-0.7h-0.7V76.3v-0.8v-0.8l0.1-0.8l0.1-0.8l0.2-0.8l0.2-0.8
	l0.2-0.8l0.3-0.8l0.3-0.8l0.4-0.8l0.4-0.8l0.4-0.7l0.5-0.7l0.5-0.7l0.5-0.7l0.6-0.6l0.6-0.6l0.6-0.6l0.7-0.5l0.7-0.5l0.7-0.5
	l0.7-0.4l0.7-0.4l0.7-0.3l0.7-0.3l0.7-0.3l0.7-0.2l0.7-0.2l0.7-0.1l0.7-0.1L174.8,59.3z M191.4,50.8h-0.8l-0.8,0.1l-0.8,0.2
	l-0.7,0.3l-0.7,0.4l-0.7,0.4l-0.6,0.5l-0.6,0.6l-0.5,0.6l-0.5,0.7l-0.4,0.7l-0.3,0.8l-0.3,0.8l-0.2,0.8l-0.2,0.8v0.8v-0.8l-0.1-0.8
	l-0.2-0.8l-0.3-0.8l-0.3-0.8l-0.4-0.7l-0.5-0.7l-0.6-0.7l-0.6-0.6l-0.7-0.5l-0.7-0.4l-0.7-0.4l-0.5-0.3l-0.7-0.2l-0.7-0.1h-0.7v-34
	h0.7h0.7l0.7,0.1l0.7,0.1l0.7,0.2l0.7,0.2l0.7,0.3l0.7,0.3l0.7,0.3l0.7,0.4l0.7,0.4l0.7,0.5l0.7,0.5l0.6,0.5l0.6,0.6l0.6,0.6
	l0.6,0.6l0.5,0.7l0.5,0.8l0.5,0.7l0.4,0.7l0.4,0.8l0.3,0.7l0.3,0.8l0.3,0.8l0.4,0.7l0.2,0.8l0.2,0.8l0.1,0.8l0.1,0.8V33v0.8
	L191.4,50.8z M175.6,109.7l0.1-0.8l0.2-0.8l0.3-0.8l0.3-0.8l0.4-0.7l0.5-0.7l0.6-0.7l0.6-0.6l0.7-0.5l0.7-0.4l0.7-0.3l0.7-0.3
	l0.7-0.2l0.7-0.1h0.7h0.7l0.7,0.1l0.7,0.2l0.7,0.3l0.7,0.3l0.7,0.4l0.7,0.5l0.6,0.6l0.6,0.7l0.5,0.7l0.4,0.7l0.3,0.8l0.3,0.8
	l0.2,0.8l0.1,0.8v0.8v34.1v0.8l-0.1,0.8l-0.2,0.8l-0.3,0.8l-0.3,0.8l-0.4,0.7l-0.5,0.7l-0.6,0.6l-0.6,0.6l-0.7,0.5l-0.7,0.4
	l-0.7,0.4l-0.7,0.3l-0.8,0.1l-0.7,0.1h-0.7h-0.7l-0.7-0.1l-0.7-0.2l-0.7-0.3l-0.7-0.4l-0.7-0.4l-0.7-0.5l-0.6-0.6l-0.6-0.6l-0.5-0.7
	l-0.4-0.7l-0.3-0.8l-0.3-0.8l-0.2-0.8l-0.1-0.8v-0.8v-34.1L175.6,109.7z M207.2,75.6v34.8h-0.7h-0.7l-0.7-0.1l-0.7-0.1l-0.7-0.2
	l-0.7-0.2l-0.7-0.2l-0.9-0.3l-0.7-0.3l-0.7-0.4l-0.7-0.4l-0.7-0.5l-0.7-0.5l-0.6-0.5l-0.6-0.6l-0.6-0.6l-0.6-0.6l-0.5-0.7l-0.5-0.7
	l-0.5-0.7l-0.4-0.7l-0.4-0.8l-0.4-0.8l-0.3-0.8l-0.3-0.8l-0.2-0.8l-0.2-0.8l-0.2-0.8l-0.1-0.8l-0.1-0.8v-0.8V59.4h0.7h0.7l0.7,0.1
	l0.7,0.1l0.7,0.2l0.7,0.2l0.7,0.3l0.7,0.2l0.7,0.3l0.7,0.4l0.7,0.4l0.7,0.5l0.7,0.5l0.6,0.5l0.6,0.6l0.6,0.6l0.6,0.6l0.5,0.7
	l0.5,0.7l0.5,0.7l0.4,0.7l0.5,0.8l0.3,0.8l0.3,0.8l0.3,0.8l0.2,0.8l0.2,0.8l0.1,0.8l0.1,0.8v0.8L207.2,75.6z M223,59.3v0.8l-0.1,0.8
	l-0.2,0.8l-0.2,0.8l-0.3,0.8l-0.4,0.7l-0.5,0.7l-0.5,0.6l-0.6,0.6l-0.7,0.5l-0.7,0.4l-0.7,0.3l-0.7,0.3l-0.7,0.2l-0.7,0.1h-0.7h-0.7
	l-0.7-0.1l-0.7-0.2l-0.7-0.3l-0.7-0.3l-0.7-0.4l-0.7-0.5l-0.6-0.6l-0.5-0.7l-0.5-0.7l-0.4-0.7l-0.3-0.8l-0.3-0.8l-0.2-0.8l-0.1-0.8
	v-0.8V32.9v-0.8l0.1-0.8l0.1-0.8l0.1-0.8l0.1-0.7l0.2-0.8l0.3-0.8l0.3-0.8l0.3-0.8l0.3-0.8l0.4-0.7l0.5-0.7l0.5-0.7l0.6-0.7l0.6-0.6
	l0.6-0.6l0.6-0.6l0.6-0.5l0.7-0.5l0.7-0.5l0.7-0.4l0.7-0.4l0.7-0.3l0.7-0.3l0.7-0.3l0.7-0.2l0.7-0.2l0.7-0.1l0.7-0.1h0.7h0.7
	L223,59.3z M208,119l0.7-0.1l0.7-0.2l0.7-0.3l0.7-0.4l0.7-0.4l0.7-0.5l0.6-0.6l0.5-0.6l0.5-0.7l0.4-0.7l0.3-0.8l0.3-0.8l0.2-0.8
	l0.1-0.8v-0.8v0.8l0.1,0.8l0.2,0.8l0.3,0.8l0.3,0.8l0.4,0.7l0.5,0.7l0.5,0.6l0.6,0.6l0.6,0.5l0.7,0.4l0.7,0.4l0.7,0.3l0.8,0.2
	l0.8,0.1h0.8v17h-0.8l-0.8,0.1l-0.8,0.2l-0.8,0.3l-0.7,0.4l-0.7,0.4l-0.6,0.5l-0.6,0.6l-0.5,0.6l-0.5,0.7l-0.4,0.7l-0.3,0.8
	l-0.3,0.8l-0.2,0.8l-0.1,0.8v0.8v-0.8l-0.1-0.8l-0.2-0.8l-0.2-0.8l-0.3-0.8l-0.4-0.7l-0.5-0.7l-0.5-0.7l-0.6-0.6l-0.7-0.5l-0.7-0.3
	l-0.7-0.4l-0.7-0.3l-0.7-0.2L208,136h-0.7v-17H208z M238.1,59.3h0.7v34.9V95l-0.1,0.8l-0.1,0.8l-0.2,0.8l-0.2,0.8L238,99l-0.3,0.8
	l-0.3,0.8l-0.4,0.8l-0.4,0.8l-0.4,0.7l-0.4,0.8l-0.5,0.6l-0.5,0.7l-0.6,0.6l-0.6,0.6l-0.6,0.6l-0.7,0.5l-0.7,0.5l-0.7,0.5l-0.7,0.4
	l-0.7,0.4l-0.7,0.3l-0.7,0.3l-0.7,0.4l-0.7,0.2l-0.7,0.2l-0.7,0.1l-0.7,0.1h-0.7h-0.7V75.6v-0.8l0.1-0.8l0.1-0.8l0.2-0.8l0.2-0.8
	l0.2-0.8l0.3-0.8l0.3-0.8l0.3-0.8l0.4-0.8l0.4-0.7l0.5-0.7l0.5-0.7l0.5-0.7l0.6-0.6l0.6-0.6L229,63l0.6-0.5l0.7-0.5l0.7-0.5l0.7-0.4
	l0.7-0.4l0.7-0.3l0.7-0.3l0.7-0.3l0.7-0.2l0.7-0.2l0.7-0.1l0.7-0.1L238.1,59.3z M254.7,50.8H254l-0.8,0.1l-0.8,0.2l-0.8,0.3
	l-0.7,0.4l-0.7,0.4l-0.6,0.5l-0.6,0.5l-0.6,0.6l-0.5,0.7l-0.4,0.7l-0.3,0.8l-0.3,0.8l-0.2,0.8l-0.1,0.8v0.8v-0.8l-0.1-0.8l-0.2-0.8
	l-0.2-0.8l-0.3-0.8l-0.4-0.7l-0.5-0.7l-0.5-0.7l-0.6-0.6L243,52l-0.7-0.4l-0.7-0.4l-0.7-0.3l-0.7-0.2l-0.7-0.1h-0.6v-34h0.7h0.7
	l0.7,0.1l0.7,0.1l0.7,0.2l0.7,0.2l0.7,0.3l0.7,0.3l0.7,0.3l0.7,0.4l0.7,0.4l0.7,0.5l0.7,0.5l0.7,0.5l0.6,0.6l0.6,0.6l0.6,0.6
	l0.5,0.7l0.5,0.8l0.5,0.7l0.4,0.7l0.4,0.8l0.4,0.7l0.3,0.7l0.4,0.8l0.2,0.8l0.2,0.8l0.2,0.8l0.1,0.8l0.1,0.8v0.8v0.8L254.7,50.8z
	 M254.7,144.6v0.8v0.8l-0.2,0.8l-0.3,0.8l-0.3,0.8l-0.4,0.7L253,150l-0.6,0.6l-0.6,0.6l-0.7,0.5l-0.7,0.4l-0.8,0.4l-0.7,0.3
	l-0.7,0.2l-0.7,0.1h-0.7h-0.7l-0.7-0.1l-0.7-0.2l-0.7-0.3l-0.7-0.4l-0.7-0.4l-0.7-0.5l-0.6-0.6l-0.6-0.6l-0.5-0.7l-0.4-0.7l-0.3-0.8
	l-0.3-0.8l-0.2-0.8l-0.1-0.8v-0.8v-34v-0.8l0.1-0.8l0.2-0.8l0.3-0.8l0.3-0.8l0.4-0.7l0.5-0.7l0.6-0.7l0.6-0.6l0.7-0.5l0.7-0.4
	l0.7-0.3l0.7-0.3l0.7-0.2l0.7-0.1h0.7h0.7h0.7l0.7,0.1l0.7,0.3l0.7,0.3l0.7,0.4l0.7,0.5l0.6,0.6l0.6,0.7l0.5,0.7l0.4,0.7l0.4,0.8
	l0.3,0.8l0.2,0.8l0.1,0.8v0.8L254.7,144.6z M238.9,204.2h0.8l0.8-0.1l0.8-0.2l0.7-0.3l0.7-0.4l0.7-0.4l0.6-0.5l0.6-0.6l0.5-0.6
	l0.5-0.7l0.4-0.7l0.3-0.8l0.3-0.8l0.2-0.8l0.1-0.8v-0.8v0.8l0.1,0.8l0.2,0.8l0.3,0.8l0.3,0.8l0.4,0.7l0.5,0.7l0.6,0.7l0.7,0.6
	l0.7,0.5l0.7,0.4l0.7,0.4l0.7,0.3l0.7,0.2l0.7,0.1h0.7v34.1h-1h-0.7l-0.7-0.1l-0.7-0.1l-0.7-0.2l-0.7-0.2l-0.7-0.3l-0.7-0.3
	l-0.7-0.3l-0.7-0.4l-0.7-0.4l-0.7-0.4l-0.7-0.5l-0.6-0.5l-0.6-0.6l-0.6-0.6l-0.6-0.6l-0.5-0.7l-0.5-0.7l-0.5-0.7l-0.4-0.7l-0.4-0.8
	l-0.3-0.8l-0.3-0.8l-0.3-0.8l-0.2-0.8l-0.2-0.8l-0.2-0.8l-0.1-0.8l-0.1-0.8v-0.8v-0.8L238.9,204.2z M223.2,179.5v-34.9h0.7h0.7
	l0.7,0.1l0.7,0.1l0.7,0.2l0.7,0.2l0.7,0.2l0.7,0.3l0.7,0.3l0.7,0.4l0.7,0.4l0.7,0.5l0.7,0.5l0.7,0.5l0.6,0.6l0.6,0.6l0.6,0.6
	l0.5,0.7l0.5,0.7l0.5,0.7l0.4,0.7l0.4,0.8l0.4,0.8l0.3,0.8l0.3,0.8l0.2,0.8l0.2,0.8l0.2,0.8l0.1,0.8l0.1,0.8v0.8v34.8h-0.7h-0.7
	l-0.7-0.1l-0.7-0.1l-0.7-0.2l-0.7-0.2l-0.7-0.3l-0.7-0.3l-0.7-0.3l-0.7-0.4l-0.7-0.4l-0.7-0.4l-0.7-0.5l-0.6-0.5l-0.6-0.6l-0.6-0.6
	l-0.6-0.6l-0.5-0.7l-0.5-0.7l-0.5-0.7l-0.4-0.7l-0.4-0.8l-0.3-0.8l-0.3-0.8l-0.3-0.8l-0.2-0.8l-0.2-0.8l-0.2-0.8l-0.1-0.8l-0.1-0.8
	L223.2,179.5z M207.1,195.7V195l0.1-0.8l0.2-0.8l0.3-0.8l0.3-0.8l0.4-0.7l0.5-0.7l0.5-0.7l0.6-0.6l0.7-0.5l0.7-0.4l0.7-0.3l0.7-0.3
	l0.7-0.2l0.7-0.1h0.7h0.7l0.7,0.1l0.7,0.2l0.7,0.3l0.7,0.3l0.7,0.4l0.7,0.5l0.6,0.6l0.5,0.7l0.5,0.7l0.4,0.7l0.3,0.8l0.2,0.8
	l0.2,0.8l0.1,0.8v0.8v26.5v0.8v0.8l-0.1,0.8l-0.2,0.8l-0.2,0.8l-0.2,0.8l-0.3,0.8l-0.3,0.8l-0.4,0.8l-0.4,0.8l-0.4,0.7l-0.5,0.7
	l-0.5,0.7l-0.5,0.7l-0.6,0.6l-0.6,0.6l-0.6,0.6l-0.6,0.5l-0.7,0.5l-0.7,0.4l-0.7,0.4l-0.3,0.3l-0.7,0.3l-0.7,0.3l-0.7,0.3l-0.7,0.2
	l-0.7,0.2l-0.7,0.1l-0.7,0.1h-0.7h-0.7L207.1,195.7z M192.1,195.7h-0.7v-34.9V160l0.1-0.8l0.1-0.8l0.2-0.8l0.2-0.8l0.2-0.8l0.3-0.8
	l0.3-0.8l0.4-0.8l0.4-0.8l0.4-0.7l0.5-0.7l0.5-0.7l0.5-0.7l0.6-0.6l0.6-0.6l0.6-0.6l0.6-0.5l0.7-0.5l0.7-0.5l0.7-0.4l0.7-0.4
	l0.7-0.3l0.7-0.3l0.7-0.2l0.7-0.2l0.7-0.2l0.7-0.1l0.7-0.1h0.7h0.7v34.9v0.8v0.8l-0.1,0.8l-0.1,0.8l-0.2,0.8l-0.2,0.8L206,185
	l-0.3,0.8l-0.3,0.8l-0.4,0.8l-0.4,0.7l-0.5,0.7l-0.5,0.7l-0.5,0.7l-0.6,0.6l-0.6,0.6l-0.6,0.6l-0.6,0.5L200,193l-0.7,0.4l-0.6,0.5
	l-0.7,0.4l-0.7,0.3l-0.7,0.3l-0.7,0.3l-0.7,0.2l-0.7,0.2l-0.7,0.1l-0.7,0.1L192.1,195.7z M175.5,204.3h0.8l0.8-0.1l0.8-0.2l0.7-0.3
	l0.7-0.4l0.7-0.4l0.6-0.5l0.6-0.6l0.5-0.6l0.5-0.7l0.4-0.7l0.3-0.8l0.3-0.8l0.2-0.8l0.1-0.8v-0.8v0.8l0.1,0.8l0.2,0.8l0.2,0.8
	l0.3,0.8l0.4,0.7l0.5,0.7l0.5,0.7l0.6,0.6l0.7,0.5l0.7,0.4l0.7,0.4l0.7,0.3l0.7,0.2l0.7,0.1h0.7v34.1h-0.7h-0.7l-0.7-0.1l-0.7-0.1
	l-0.7-0.3l-0.7-0.2l-0.7-0.3l-0.7-0.3l-0.7-0.3l-0.7-0.4l-0.7-0.4l-0.7-0.4l-0.7-0.5l-0.7-0.5l-0.6-0.6l-0.6-0.6l-0.6-0.6l-0.5-0.7
	l-0.5-0.7l-0.5-0.7l-0.4-0.7l-0.4-0.8l-0.4-0.8l-0.3-0.8l-0.3-0.8l-0.2-0.8l-0.2-0.8l-0.2-0.8l-0.1-0.8l-0.1-0.8v-0.8v-0.8
	L175.5,204.3z M159.7,179.5v-0.8v-34.1h0.7h0.7l0.7,0.1l0.7,0.1l0.7,0.2l0.7,0.2l0.7,0.2l0.7,0.3l0.7,0.3l0.7,0.4l0.7,0.4l0.7,0.5
	l0.7,0.5l0.6,0.5l0.6,0.6l0.6,0.6l0.6,0.6l0.5,0.7l0.5,0.7l0.5,0.7l0.4,0.7l0.4,0.8l0.3,0.8l0.3,0.8l0.3,0.8l0.2,0.8l0.2,0.8
	l0.2,0.8l0.1,0.8l0.1,0.8v0.8v34.8h-0.7h-0.7l-0.7-0.1l-0.7-0.1l-0.7-0.2l-0.7-0.2l-0.7-0.3l-0.7-0.3l-0.7-0.3l-0.7-0.4l-0.7-0.4
	l-0.7-0.4l-0.7-0.5l-0.7-0.5l-0.6-0.6l-0.6-0.6l-0.6-0.6l-0.5-0.6l-0.5-0.7l-0.5-0.7l-0.4-0.7l-0.4-0.8l-0.4-0.8l-0.3-0.8l-0.3-0.8
	l-0.2-0.8l-0.2-0.8l-0.2-0.8l-0.1-0.8l-0.1-0.8L159.7,179.5z M143.9,195.7V195l0.1-0.8l0.2-0.8l0.3-0.8l0.3-0.8l0.4-0.7l0.5-0.7
	l0.6-0.7l0.6-0.6l0.7-0.5l0.7-0.4l0.7-0.3l0.7-0.3l0.7-0.2l0.7-0.1h0.7h0.7l0.7,0.1l0.7,0.2l0.7,0.3l0.7,0.3l0.7,0.4l0.7,0.5
	l0.6,0.6l0.6,0.7l0.5,0.7l0.4,0.7l0.3,0.8l0.3,0.8l0.2,0.8l0.1,0.8v0.8v26.4v0.8l-0.1,0.8l-0.1,0.8l-0.2,0.9l-0.2,0.8l-0.2,0.8
	l-0.3,0.8l-0.3,0.8l-0.3,0.8l-0.4,0.8l-0.4,0.7l-0.5,0.7l-0.5,0.7l-0.5,0.7l-0.6,0.6l-0.6,0.6l-0.6,0.6l-0.7,0.5l-0.7,0.5l-0.7,0.4
	l-0.7,0.4l-0.7,0.4l-0.7,0.3l-0.7,0.3l-0.7,0.3l-0.7,0.2l-0.7,0.2l-0.7,0.1l-0.7,0.1h-0.9h-0.7V195.7z M128.8,195.7h-0.7v-34.9V160
	l0.1-0.8l0.1-0.8l0.2-0.8l0.2-0.8l0.2-0.8l0.3-0.8l0.3-0.8l0.3-0.8l0.4-0.8l0.4-0.7l0.5-0.7l0.5-0.7l0.5-0.7l0.6-0.6l0.6-0.6
	l0.6-0.6l0.6-0.6l0.7-0.5l0.7-0.5l0.7-0.4l0.7-0.4l0.7-0.3l0.7-0.3l0.7-0.2l0.7-0.2l0.7-0.2l0.7-0.1l0.7-0.1h0.7h0.7v34.2v0.8v0.8
	l-0.1,0.8l-0.1,0.8l-0.2,0.8l-0.2,0.8l-0.2,0.8l-0.3,0.8l-0.3,0.8l-0.4,0.8l-0.4,0.8l-0.4,0.7l-0.5,0.7l-0.5,0.7l-0.5,0.7l-0.6,0.6
	l-0.6,0.6l-0.6,0.6l-0.7,0.5l-0.7,0.5l-0.7,0.4l-0.7,0.4l-0.7,0.4l-0.7,0.3l-0.8,0.3l-0.7,0.3l-0.7,0.2l-0.7,0.2l-0.7,0.1l-0.7,0.1
	H128.8z M112.2,204.3h0.8l0.8-0.1l0.8-0.2l0.7-0.3l0.7-0.4l0.7-0.4l0.6-0.5l0.6-0.6l0.5-0.6l0.5-0.7l0.4-0.7l0.3-0.8l0.3-0.8
	l0.2-0.8l0.1-0.8v-0.8v0.8l0.1,0.8l0.2,0.8l0.3,0.8l0.3,0.8l0.4,0.7l0.5,0.7l0.6,0.7l0.6,0.6l0.7,0.5l0.7,0.4l0.7,0.4l0.7,0.3
	l0.7,0.2l0.7,0.1h0.7v34.1h-0.7h-0.7l-0.7-0.1l-0.7-0.1l-0.7-0.2l-0.7-0.2l-0.7-0.3l-0.7-0.3l-0.7-0.3l-0.7-0.4l-0.7-0.4l-0.7-0.4
	l-0.7-0.5l-0.6-0.5l-0.6-0.6l-0.6-0.6l-0.6-0.6l-0.5-0.7l-0.5-0.7l-0.5-0.7l-0.4-0.7l-0.4-0.8l-0.3-0.8l-0.3-0.8l-0.3-0.8l-0.2-0.8
	l-0.2-0.8l-0.2-0.8l-0.1-0.8l-0.1-0.8v-0.8v-0.8L112.2,204.3z M96.4,179.5v-34.9h0.7h0.7l0.7,0.1l0.7,0.1l0.7,0.2l0.7,0.2l0.7,0.2
	l0.7,0.3l0.7,0.3l0.7,0.4l0.7,0.4l0.7,0.5l0.7,0.5l0.6,0.5l0.6,0.6l0.6,0.6l0.6,0.6l0.5,0.7l0.5,0.7l0.5,0.7l0.4,0.7l0.4,0.8
	l0.4,0.8l0.3,0.8l0.3,0.8l0.2,0.8l0.2,0.8l0.2,0.8l0.1,0.8l0.1,0.8v0.8v34.9h-0.6h-0.7l-0.7-0.1l-0.7-0.1l-0.7-0.2l-0.7-0.2
	l-0.7-0.3l-0.7-0.3l-0.7-0.3l-0.7-0.4l-0.7-0.4l-0.7-0.4l-0.7-0.5l-0.6-0.5l-0.6-0.6l-0.6-0.6l-0.6-0.6l-0.5-0.7l-0.5-0.7l-0.5-0.7
	l-0.4-0.7l-0.4-0.8l-0.3-0.8l-0.3-0.8l-0.3-0.8l-0.2-0.8l-0.2-0.8l-0.1-0.8l-0.1-0.8l-0.1-0.8L96.4,179.5z M80.4,195.7V195l0.1-0.8
	l0.2-0.8l0.2-0.8l0.3-0.8l0.4-0.7l0.5-0.7l0.5-0.7l0.6-0.6l0.7-0.5l0.7-0.4l0.7-0.3l0.7-0.3l0.7-0.2l0.7-0.1h0.9H89l0.7,0.1l0.7,0.2
	l0.7,0.3l0.7,0.3l0.7,0.4l0.7,0.5l0.6,0.6l0.5,0.7l0.5,0.7l0.4,0.7l0.3,0.8l0.2,0.8l0.2,0.8l0.1,0.8v0.8v26.3v0.8l-0.1,0.8l-0.1,0.8
	l-0.2,0.8l-0.2,0.8l-0.2,0.8l-0.3,0.8l-0.3,0.8l-0.3,0.8l-0.4,0.8l-0.4,0.7l-0.5,0.7l-0.5,0.7l-0.5,0.7l-0.6,0.6l-0.6,0.6l-0.6,0.6
	l-0.6,0.5l-0.7,0.5l-0.7,0.4l-0.7,0.4l-0.7,0.4l-0.7,0.3l-0.7,0.3l-0.7,0.3L84,238l-0.7,0.4l-0.7,0.1l-0.7,0.1h-0.7h-0.7L80.4,195.7
	z M65.4,195.7h-0.7v-34.9V160l0.1-0.8l0.1-0.8l0.2-0.8l0.2-0.8l0.2-0.8l0.3-0.8l0.3-0.8l0.4-0.8l0.4-0.8l0.4-0.7l0.5-0.7l0.5-0.7
	l0.5-0.7l0.6-0.6l0.6-0.6l0.6-0.6l0.6-0.5l0.7-0.5l0.7-0.5l0.7-0.4l0.7-0.4l0.7-0.3l0.7-0.3l0.7-0.2l0.7-0.2l0.7-0.2l0.7-0.1
	l0.7-0.1h0.7h0.7v35.1v0.8l-0.1,0.8l-0.1,0.8l-0.2,0.8l-0.2,0.8l-0.2,0.8l-0.3,0.8l-0.3,0.8l-0.3,0.8l-0.4,0.8l-0.4,0.7l-0.5,0.7
	l-0.5,0.7l-0.5,0.7l-0.6,0.6l-0.6,0.6l-0.6,0.6l-0.6,0.5l-0.7,0.5l-0.7,0.4l-0.7,0.4l-0.7,0.4l-0.7,0.3l-0.7,0.3l-0.7,0.3l-0.7,0.2
	l-0.7,0.2l-0.7,0.1l-0.7,0.1L65.4,195.7z M48.8,204.3h0.8l0.8-0.1l0.8-0.2l0.8-0.3l0.7-0.4l0.7-0.4l0.6-0.5l0.6-0.6l0.5-0.6l0.5-0.7
	l0.4-0.7l0.3-0.8l0.3-0.8l0.2-0.8l0.1-0.8v-0.8v0.8l0.1,0.8l0.2,0.8l0.2,0.8l0.3,0.8l0.4,0.7l0.5,0.7l0.5,0.7l0.6,0.6l0.7,0.5
	l0.7,0.4l0.7,0.4l0.7,0.3l0.7,0.2l0.7,0.1h0.7v34.2h-0.7h-0.7l-0.7-0.1l-0.7-0.1l-0.7-0.2l-0.7-0.2l-0.7-0.3l-0.7-0.3l-0.7-0.3
	l-0.7-0.4l-0.7-0.4l-0.7-0.4l-0.7-0.5l-0.7-0.5l-0.6-0.6l-0.6-0.6l-0.6-0.6l-0.5-0.7l-0.5-0.7l-0.5-0.7l-0.4-0.7l-0.4-0.8l-0.4-0.8
	l-0.3-0.8l-0.3-0.8l-0.2-0.8l-0.2-0.8l-0.2-0.8l-0.1-0.8l-0.1-0.8v-0.8v-0.8L48.8,204.3z M33,179.5v-34.9h0.7h0.7l0.7,0.1l0.7,0.1
	l0.7,0.2l0.7,0.2l0.7,0.2l0.7,0.3l0.7,0.3l0.7,0.4l0.7,0.4l0.7,0.5l0.7,0.5l0.7,0.5l0.6,0.6l0.6,0.6l0.6,0.6l0.5,0.7l0.5,0.7
	l0.5,0.7l0.4,0.7l0.4,0.8l0.3,0.8l0.3,0.8l0.3,0.8l0.2,0.8l0.2,0.8l0.2,0.8l0.1,0.8l0.1,0.8v0.8v35H48h-0.7l-0.7-0.1l-0.7-0.1
	l-0.7-0.2l-0.7-0.2l-0.7-0.3l-0.7-0.3l-0.7-0.3l-0.7-0.4l-0.7-0.4l-0.7-0.4l-0.7-0.5l-0.7-0.5l-0.6-0.6l-0.6-0.6l-0.6-0.6l-0.5-0.7
	L36,189l-0.5-0.7l-0.4-0.7l-0.4-0.8l-0.4-0.8l-0.3-0.8l-0.3-0.8l-0.2-0.8l-0.2-0.8l-0.2-0.8l-0.1-0.8l-0.1-0.8v-0.9H33z M17.1,195.7
	V195l0.1-0.8l0.2-0.8l0.3-0.8l0.3-0.8l0.4-0.7l0.5-0.7l0.6-0.7l0.6-0.6l0.7-0.5l0.7-0.4l0.7-0.3l0.7-0.3l0.7-0.2l0.7-0.1H25h0.7
	l0.7,0.1l0.7,0.2l0.7,0.3l0.7,0.3l0.7,0.4l0.7,0.5l0.6,0.6l0.6,0.7l0.5,0.7l0.4,0.7l0.3,0.8l0.3,0.8l0.2,0.8l0.1,0.8v0.8v25.5v0.8
	v0.8l-0.1,0.8l-0.1,0.8l-0.2,0.8l-0.2,0.8l-0.2,0.8l-0.3,0.8l-0.3,0.8l-0.4,0.8l-0.4,0.8l-0.4,0.7l-0.5,0.7l-0.5,0.7l-0.5,0.7
	l-0.6,0.6l-0.6,0.6l-0.6,0.6l-0.7,0.5l-0.7,0.5l-0.5,0.3l-0.7,0.4l-0.7,0.7l-0.7,0.3l-0.7,0.3l-0.7,0.3l-0.7,0.2l-0.7,0.2l-0.7,0.1
	l-0.7,0.1h-0.7h-0.7L17.1,195.7z M1.2,195.7v-34.9V160l0.1-0.8l0.1-0.8l0.2-0.8l0.2-0.8L2,156l0.3-0.8l0.3-0.8l0.3-0.8l0.4-0.8
	l0.4-0.7l0.5-0.7l0.5-0.7l0.5-0.7l0.6-0.6l0.6-0.6l0.6-0.6l0.7-0.5l0.7-0.5l0.7-0.5l0.7-0.4l0.7-0.4l0.7-0.3l0.7-0.3l0.7-0.2
	l0.7-0.2l0.7-0.2l0.7-0.1l0.7-0.1h0.7h0.7v34.9v0.8l-0.1,0.8l-0.1,0.8l-0.2,0.8l-0.2,0.8l-0.2,0.8l-0.3,0.8l-0.3,0.8l-0.4,0.8
	l-0.4,0.8l-0.4,0.7l-0.5,0.7l-0.5,0.7l-0.5,0.7l-0.5,0.9l-0.6,0.6l-0.6,0.6l-0.7,0.5l-0.7,0.5l-0.7,0.4l-0.7,0.4l-0.7,0.4l-0.7,0.3
	l-0.7,0.3l-0.7,0.3l-0.7,0.2L4,195.8l-0.7,0.1L2.7,196H2H1.3L1.2,195.7z M1.3,59.3H2h0.7l0.7,0.1l0.7,0.1l0.7,0.2l0.7,0.2l0.7,0.3
	l0.7,0.3l0.7,0.3l0.7,0.4L9,61.6L9.9,62l0.7,0.5l0.7,0.5l0.6,0.6l0.6,0.6l0.6,0.6l0.5,0.7l0.5,0.7l0.5,0.7l0.4,0.7l0.4,0.8l0.4,0.8
	l0.2,0.8l0.3,0.8l0.2,0.8l0.2,0.8l0.2,0.8l0.1,0.8l0.1,0.8v0.8v35h-0.7h-0.7l-0.7-0.1l-0.7-0.1l-0.7-0.2L13,110l-0.7-0.2l-0.7-0.3
	l-0.7-0.3l-0.7-0.4l-0.7-0.4l-0.7-0.5L8,107.4l-0.7-0.5l-0.6-0.6l-0.6-0.6L5.3,105l-0.5-0.7l-0.5-0.7l-0.5-0.7l-0.4-0.7L3,101.5
	l-0.3-0.8l-0.3-0.8l-0.3-0.8l-0.2-0.8l-0.2-0.8l-0.2-0.8l-0.1-0.8l-0.1-0.8v-0.8v-0.8V59.3z"/>
</svg>
