<?xml version="1.0" encoding="utf-8"?>
<!-- Generator: Adobe Illustrator 22.1.0, SVG Export Plug-In . SVG Version: 6.00 Build 0)  -->
<svg version="1.1" id="Layer_2_1_" xmlns="http://www.w3.org/2000/svg" xmlns:xlink="http://www.w3.org/1999/xlink" x="0px" y="0px"
	 width="180px" height="150px" viewBox="0 0 180 150" style="enable-background:new 0 0 180 150;" xml:space="preserve">
<path d="M0,0v150h180V0H0z M23.2,29.3v0.5l-0.1,0.5L23,30.9l-0.2,0.5l-0.2,0.5l-0.3,0.5L22,32.9l-0.4,0.4l-0.4,0.4L20.7,34l-0.5,0.3
	l-0.5,0.2l-0.5,0.2l-0.5,0.1L18.1,35h-0.5h-0.5l-0.5-0.1l-0.5-0.1l-0.5-0.2L15,34.4l-0.5-0.3L14,33.8l-0.4-0.4L13.2,33l-0.3-0.5
	L12.6,32l-0.2-0.5L12.2,31l-0.1-0.5L12,30v-0.5V11.7v-0.5l0.1-0.5l0.1-0.5l0.1-0.5L12.4,9l0.2-0.5L12.8,8L13,7.4l0.2-0.5l0.3-0.5
	l0.3-0.5l0.3-0.5L14.5,5l0.4-0.4l0.4-0.4l0.4-0.4l0.4-0.4L16.6,3l0.5-0.3l0.5-0.3L18,2l0.5-0.3L19,1.5l0.5-0.2L20,1.1L20.5,1L21,0.9
	l0.5-0.1L22,0.7h0.5H23L23.2,29.3z M12.5,69.3l0.5-0.1l0.5-0.1l0.5-0.2l0.5-0.2l0.5-0.3l0.5-0.3l0.4-0.4l0.4-0.4l0.3-0.5l0.3-0.5
	l0.2-0.5l0.2-0.5l0.1-0.5l0.1-0.5v-0.5v0.6l0.1,0.6l0.1,0.6l0.2,0.5l0.2,0.5l0.3,0.5l0.3,0.4l0.4,0.4l0.4,0.4l0.4,0.3l0.5,0.3
	l0.5,0.2l0.5,0.2l0.5,0.1l0.5,0.1h0.5v11.4h-0.5L22,80.8l-0.5,0.1L21,81.1l-0.5,0.2L20,81.7L19.6,82l-0.4,0.4l-0.4,0.4l-0.3,0.4
	l-0.3,0.5L18,84.2l-0.2,0.5l-0.1,0.6l-0.1,0.6v0.6V86l-0.1-0.5L17.4,85l-0.2-0.5L17,83.8l-0.3-0.5l-0.3-0.5L16,82.4L15.5,82L15,81.7
	l-0.5-0.3L14,81.2L13.5,81L13,80.8l-0.5-0.1H12V69.3H12.5z M33.7,29.3h0.5v23.4v0.5l-0.1,0.5L34,54.2l0,0.6l-0.1,0.5l-0.2,0.5
	l-0.2,0.5l-0.2,0.5L33,57.4L32.8,58l-0.3,0.5L32.2,59l-0.3,0.5L31.5,60l-0.4,0.4l-0.4,0.4l-0.4,0.4l-0.5,0.4l-0.5,0.3l-0.5,0.3
	l-0.5,0.3l-0.5,0.2l-0.5,0.2L26.8,63l-0.5,0.2l-0.5,0.1l-0.5,0.1l-0.5,0.1l-0.5,0.1h-0.5h-0.5V40.2v-0.5l0.1-0.5l0.1-0.5l0.1-0.5
	l0.1-0.5l0.2-0.5l0.2-0.5l0.2-0.5l0.2-0.5l0.3-0.5l0.3-0.5l0.3-0.5l0.4-0.5l0.4-0.5l0.4-0.4l0.4-0.4l0.4-0.4l0.5-0.4l0.5-0.3
	l0.5-0.3l0.5-0.3l0.5-0.2l0.5-0.2l0.5-0.2l0.5-0.2l0.5-0.1l0.5-0.1l0.5-0.1l0.5-0.1L33.7,29.3z M45.4,23.6h-0.5l-0.5,0.1l-0.5,0.1
	L43.3,24l-0.5,0.2l-0.5,0.3l-0.4,0.3l-0.4,0.4l-0.4,0.4l-0.3,0.5l-0.3,0.5l-0.2,0.5l-0.2,0.5L40,28.1l-0.1,0.5v0.5v-0.5l-0.1-0.5
	l-0.1-0.5l-0.2-0.5l-0.2-0.5L39,26.2l-0.3-0.5l-0.4-0.4l-0.4-0.4l-0.5-0.4l-0.5-0.3L36.4,24l-0.5-0.2l-0.5-0.1l-0.5-0.1h-0.5V0.8
	h0.5h0.5l0.5,0.1L36.4,1L37,1.1l0.5,0.1L38,1.4l0.5,0.2L39,1.8L39.5,2L40,2.3l0.5,0.3L41,2.9l0.4,0.4l0.4,0.4l0.4,0.4l0.4,0.4L43,5
	l0.4,0.5L43.7,6L44,6.4l0.3,0.5l0.2,0.5L44.7,8l0.2,0.5L45.1,9l0.1,0.5l0.1,0.5l0.1,0.5l0.1,0.5v0.5V12L45.4,23.6z M34.3,63.1
	l0.1-0.5l0.1-0.5l0.2-0.5l0.2-0.5l0.3-0.5l0.3-0.5l0.4-0.4l0.4-0.4l0.5-0.3l0.5-0.3l0.5-0.2l0.5-0.2l0.5-0.1l0.5-0.1h0.5h0.5
	l0.5,0.1l0.5,0.1l0.5,0.2l0.5,0.2l0.5,0.3l0.5,0.3l0.4,0.4l0.4,0.4l0.3,0.5l0.3,0.5l0.2,0.5l0.2,0.5l0.1,0.5l0.1,0.5v0.5v22.8v0.5
	l-0.1,0.5V88L45,88.5L44.8,89l-0.3,0.5L44.2,90l-0.4,0.4l-0.4,0.4l-0.5,0.3l-0.5,0.3l-0.5,0.2l-0.5,0.2L40.9,92l-0.5,0.1h-0.5h-0.5
	L38.8,92l-0.5-0.1l-0.5-0.2l-0.5-0.2l-0.5-0.3l-0.5-0.3l-0.4-0.4L35.5,90l-0.3-0.5L34.9,89l-0.2-0.5L34.5,88l-0.1-0.5L34.3,87v-0.5
	V63.6C34.3,63.6,34.3,63.1,34.3,63.1z M56.5,40.2v23.3H56h-0.5H55l-0.5-0.1L54,63.3l-0.5-0.1L52.9,63l-0.5-0.2l-0.5-0.2l-0.5-0.2
	L50.9,62l-0.5-0.3L50,61.4L49.5,61l-0.4-0.4l-0.4-0.4l-0.4-0.4l-0.4-0.5l-0.4-0.5l-0.3-0.5l-0.3-0.5l-0.3-0.5l-0.2-0.5l-0.2-0.5
	L46,55.8l-0.2-0.5l-0.1-0.5l-0.1-0.5l-0.1-0.5l-0.1-0.5v-0.5V29.4h0.5h0.5l0.5,0.1l0.5,0.1l0.5,0.1l0.5,0.1l0.5,0.2l0.5,0.2l0.5,0.2
	l0.5,0.2l0.5,0.3l0.5,0.3l0.5,0.3l0.5,0.4l0.4,0.4l0.4,0.4l0.4,0.4l0.4,0.5l0.3,0.5l0.3,0.5l0.3,0.5l0.3,0.5l0.2,0.5l0.2,0.5L56,37
	l0.2,0.5l0.1,0.5l0.1,0.5l0.1,0.5l0.1,0.5L56.5,40.2z M67.7,29.3v0.5l-0.1,0.5l-0.1,0.5l-0.2,0.5l-0.2,0.5l-0.4,0.5l-0.3,0.5
	L66,33.2l-0.4,0.4l-0.5,0.3l-0.5,0.3l-0.5,0.2l-0.5,0.2l-0.5,0.1L62.6,35h-0.5h-0.5l-0.5-0.1l-0.5-0.1l-0.5-0.2l-0.5-0.2l-0.5-0.3
	l-0.5-0.3l-0.4-0.4L57.8,33l-0.3-0.5L57.2,32L57,31.4l-0.2-0.5l-0.1-0.5l-0.1-0.5v-0.5V11.7v-0.5v-0.5l0.1-0.5l0.1-0.5L57,9l0.2-0.5
	L57.3,8l0.2-0.5L57.7,7L58,6.5L58.3,6l0.3-0.5L59.1,5l0.4-0.4l0.4-0.4l0.4-0.4l0.4-0.4L61.1,3l0.5-0.4l0.5-0.3L62.6,2l0.5-0.2
	l0.5-0.2l0.5-0.2l0.5-0.2L65.2,1l0.5-0.1l0.5-0.1l0.5-0.1h0.5h0.5V29.3z M57.2,69.3l0.5-0.1l0.5-0.1l0.5-0.2l0.5-0.2l0.5-0.3
	l0.5-0.3l0.4-0.4l0.4-0.4l0.3-0.5l0.3-0.5l0.2-0.5l0.2-0.5l0.1-0.5l0.1-0.5v-0.5v0.6l0.1,0.6l0.1,0.6l0.2,0.5l0.2,0.5l0.3,0.5
	l0.3,0.4l0.4,0.4l0.4,0.4l0.4,0.3l0.5,0.3l0.5,0.2l0.5,0.2l0.5,0.1l0.5,0.1h0.5v11.4h-0.5L66.6,81l-0.5,0.1l-0.5,0.2l-0.5,0.2
	l-0.5,0.3L64.2,82l-0.4,0.4l-0.4,0.4l-0.3,0.4l-0.4,0.5l-0.2,0.5l-0.2,0.5l-0.1,0.6l-0.1,0.6v0.6V86L62,85.5L61.9,85l-0.2-0.5
	L61.5,84l-0.3-0.5L60.9,83l-0.4-0.4L60.1,82l-0.5-0.3l-0.5-0.3l-0.5-0.2L58.1,81l-0.5-0.2l-0.5-0.1h-0.5V69.3H57.2z M78.3,29.3h0.5
	v23.4v0.5l-0.1,0.5l-0.1,0.5l-0.1,0.5l-0.1,0.5l-0.2,0.5L78,56.4l-0.2,0.5l-0.2,0.5l-0.3,0.5L77,58.4l-0.3,0.5l-0.3,0.5L76,59.9
	l-0.4,0.4l-0.4,0.4l-0.3,0.4l-0.4,0.4L74,61.8l-0.5,0.3L73,62.4l-0.5,0.2L72,62.8L71.3,63l-0.5,0.2l-0.5,0.1l-0.5,0.1l-0.5,0.1
	l-0.5,0.1h-0.5h-0.5V40.2v-0.5l0.1-0.5l0.1-0.5l0.1-0.5l0.1-0.5l0.2-0.5l0.2-0.5l0.2-0.5l0.2-0.5l0.3-0.5l0.3-0.5l0.3-0.5l0.3-0.5
	l0.4-0.5l0.4-0.4l0.4-0.4l0.4-0.4l0.4-0.4l0.5-0.3l0.5-0.3l0.5-0.3l0.5-0.2l0.5-0.2l0.5-0.2l0.5-0.2l0.5-0.1l0.5-0.1l0.5-0.1
	l0.5-0.1L78.3,29.3z M90,23.6h-0.5L89,23.7l-0.5,0.1L87.9,24l-0.5,0.2l-0.5,0.3l-0.4,0.3l-0.4,0.4l-0.4,0.4l-0.3,0.5l-0.3,0.5
	l-0.3,0.5l-0.2,0.5l-0.1,0.5l-0.1,0.5v0.5v-0.5l-0.1-0.5l-0.1-0.5L84,27.2l-0.2-0.5l-0.3-0.5l-0.3-0.5l-0.4-0.4l-0.4-0.4l-0.5-0.4
	l-0.5-0.3L80.9,24l-0.5-0.2l-0.5-0.1l-0.5-0.1h-0.5V0.8h0.5h0.5l0.5,0.1L80.9,1l0.5,0.1l0.5,0.1l0.5,0.2L83,1.6l0.5,0.2L84,2
	l0.5,0.3L85,2.6l0.5,0.3L86,3.3l0.4,0.4l0.4,0.4l0.4,0.4l0.4,0.4l0.3,0.5l0.3,0.5l0.4,0.5l0.3,0.5L89,7.4l0.2,0.5l0.2,0.5L89.6,9
	l0.1,0.5l0.1,0.5l0.1,0.5L90,11v0.5V12L90,23.6z M78.9,63l0.1-0.5l0.1-0.5l0.2-0.5l0.2-0.5l0.3-0.5l0.3-0.5l0.4-0.4l0.4-0.4l0.5-0.3
	l0.5-0.3l0.5-0.2l0.5-0.2l0.5-0.1l0.5-0.1h0.5h0.5h0.5l0.5,0.1l0.5,0.2l0.5,0.2l0.5,0.3l0.5,0.3l0.4,0.4l0.4,0.4l0.3,0.5l0.3,0.5
	l0.2,0.5l0.2,0.5l0.1,0.5l0.1,0.5v0.5v22.8v0.5v0.5L89.8,88l-0.2,0.5L89.4,89l-0.3,0.5L88.7,90l-0.4,0.4l-0.4,0.4l-0.5,0.3L87,91.5
	l-0.5,0.2L86,91.9L85.4,92l-0.5,0.1h-0.5h-0.5L83.4,92l-0.5-0.1l-0.5-0.2l-0.5-0.2l-0.5-0.3l-0.5-0.3l-0.4-0.4L80.1,90l-0.3-0.5
	L79.5,89l-0.2-0.5L79.1,88L79,87.5L78.9,87v-0.5V63.6V63z M101.1,40.2v0.5v22.8h-0.5h-0.5l-0.5-0.1l-0.5-0.1l-0.5-0.1l-0.5-0.1
	L97.6,63L97,62.8l-0.5-0.2L96,62.3L95.5,62L95,61.7l-0.5-0.3L94.1,61l-0.4-0.4l-0.4-0.4l-0.4-0.4l-0.4-0.5l-0.3-0.5l-0.3-0.5
	l-0.3-0.5l-0.3-0.5L91,56.9l-0.2-0.5l-0.2-0.5l-0.2-0.5l-0.1-0.5l-0.1-0.5l-0.1-0.5L90,53.2v-0.5V29.4h0.5H91l0.5,0.1l0.5,0.1
	l0.5,0.1l0.5,0.1l0.5,0.2l0.5,0.2l0.5,0.2l0.5,0.2l0.5,0.3l0.5,0.3l0.5,0.3l0.5,0.4l0.4,0.4l0.4,0.4l0.4,0.4l0.4,0.5L99,34l0.3,0.5
	l0.3,0.5l0.3,0.5l0.2,0.5l0.2,0.5l0.2,0.5l0.2,0.5l0.1,0.5l0.1,0.5L101,39l0.1,0.5L101.1,40.2z M112.2,29.3v0.5l-0.1,0.5l-0.1,0.6
	l-0.2,0.5l-0.2,0.5l-0.3,0.5l-0.3,0.5l-0.4,0.4l-0.4,0.4l-0.5,0.3l-0.5,0.3l-0.5,0.2l-0.5,0.2l-0.5,0.1l-0.5,0.1h-0.5h-0.5l-0.5-0.1
	l-0.5-0.1l-0.5-0.2l-0.5-0.2l-0.5-0.3l-0.5-0.3l-0.4-0.4l-0.4-0.4l-0.3-0.5l-0.3-0.5l-0.2-0.5l-0.2-0.5l-0.1-0.5l-0.1-0.5v-0.5V11.7
	v-0.5l0.1-0.5l0.1-0.5l0.1-0.5l0.1-0.5l0.2-0.5l0.2-0.5l0.2-0.5l0.2-0.6l0.3-0.5l0.3-0.5l0.3-0.5l0.3-0.5l0.4-0.5l0.4-0.4l0.4-0.4
	l0.4-0.4l0.5-0.4l0.5-0.3l0.5-0.3l0.5-0.3l0.5-0.2l0.5-0.2l0.5-0.2l0.5-0.2l0.5-0.1l0.5-0.1l0.5-0.1l0.5-0.1h0.5h0.5V29.3z
	 M101.7,69.3l0.5-0.1l0.5-0.1l0.5-0.2l0.5-0.2l0.5-0.3l0.5-0.3l0.4-0.4l0.4-0.4l0.3-0.5l0.3-0.5l0.2-0.5l0.2-0.5l0.1-0.5l0.1-0.5
	v-0.5v0.6l0.1,0.6l0.1,0.6l0.2,0.5l0.2,0.5l0.3,0.5l0.3,0.4l0.4,0.4l0.4,0.4l0.4,0.3l0.5,0.3l0.5,0.2l0.5,0.2l0.5,0.1l0.5,0.1h0.5
	v11.4h-0.5l-0.5,0.1l-0.5,0.1l-0.6,0.2l-0.5,0.2l-0.5,0.3l-0.4,0.3l-0.4,0.4l-0.4,0.4l-0.3,0.4l-0.3,0.5l-0.2,0.5l-0.2,0.5l-0.1,0.6
	l-0.1,0.6v0.6v-0.5l-0.1-0.5l-0.1-0.5l-0.2-0.5l-0.2-0.5l-0.3-0.5l-0.3-0.5l-0.4-0.4l-0.4-0.4l-0.5-0.3l-0.5-0.3l-0.5-0.2l-0.5-0.2
	l-0.5-0.1l-0.5-0.1h-0.5V69.3H101.7z M122.9,29.3h0.5v23.4v0.5l-0.1,0.5l-0.1,0.5l-0.1,0.5l-0.2,0.5l-0.2,0.5l-0.2,0.5l-0.2,0.5
	l-0.2,0.5l-0.2,0.6l-0.3,0.5l-0.3,0.5l-0.4,0.4l-0.4,0.5l-0.4,0.4l-0.4,0.4l-0.4,0.4l-0.4,0.4l-0.5,0.3l-0.5,0.3l-0.5,0.3l-0.5,0.2
	l-0.5,0.2l-0.5,0.2l-0.5,0.2l-0.5,0.1l-0.5,0.1l-0.5,0.1l-0.5,0.1h-0.5h-0.5V40.7v-0.5v-0.5l0.1-0.5l0.1-0.5l0.1-0.5l0.1-0.5
	l0.2-0.5l0.2-0.5l0.2-0.5l0.2-0.5l0.3-0.5l0.3-0.5l0.3-0.5l0.4-0.5l0.4-0.5l0.4-0.4l0.4-0.4l0.4-0.4l0.5-0.4l0.5-0.3L118,31l0.5-0.3
	l0.5-0.2l0.5-0.2l0.5-0.2l0.5-0.2l0.5-0.1l0.5-0.1l0.5-0.1l0.5-0.1L122.9,29.3z M134.6,23.6h-0.5l-0.5,0.1l-0.5,0.1l-0.5,0.2
	l-0.5,0.2l-0.5,0.3l-0.4,0.3l-0.4,0.4l-0.4,0.4l-0.3,0.5l-0.3,0.5l-0.2,0.5l-0.2,0.5l-0.1,0.5l-0.2,0.5v0.5v-0.5l-0.1-0.5l-0.1-0.5
	l-0.2-0.5l-0.2-0.5l-0.3-0.5l-0.3-0.5l-0.4-0.4l-0.4-0.4l-0.5-0.4l-0.5-0.3l-0.5-0.2l-0.5-0.2l-0.5-0.1l-0.5-0.1h-0.5V0.8h0.5h0.5
	l0.5,0.1l0.5,0.1l0.5,0.1l0.5,0.1l0.5,0.2l0.5,0.2l0.5,0.2l0.5,0.2l0.5,0.3l0.5,0.3l0.5,0.3l0.4,0.3l0.4,0.4l0.4,0.4l0.4,0.4
	l0.4,0.4l0.3,0.5l0.3,0.5l0.3,0.5l0.3,0.5l0.2,0.5l0.2,0.5l0.2,0.5l0.2,0.5l0.2,0.5l0.1,0.5l0.1,0.5l0.1,0.5v0.5v0.5L134.6,23.6z
	 M123.4,63l0.1-0.5l0.1-0.5l0.2-0.5L124,61l0.3-0.5l0.3-0.5l0.4-0.4l0.4-0.4l0.5-0.3l0.5-0.3l0.5-0.2l0.5-0.2L128,58l0.5-0.1h0.5
	h0.5L130,58l0.5,0.1l0.5,0.2l0.5,0.2l0.5,0.3l0.5,0.3l0.4,0.4l0.4,0.4l0.3,0.5l0.3,0.5l0.2,0.5l0.2,0.5l0.1,0.5l0.1,0.5v0.5v22.8
	v0.5l-0.1,0.5l-0.1,0.5l-0.2,0.5l-0.2,0.5l-0.3,0.5l-0.3,0.5l-0.4,0.4l-0.4,0.4l-0.5,0.3l-0.5,0.3l-0.5,0.2l-0.5,0.2L130,92
	l-0.5,0.1H129h-0.5L128,92l-0.5-0.1l-0.5-0.2l-0.5-0.2l-0.5-0.3l-0.5-0.3l-0.4-0.4l-0.4-0.4l-0.3-0.5L124,89l-0.2-0.5l-0.2-0.5
	l-0.1-0.5l-0.1-0.5v-0.5V63.6L123.4,63z M145.7,40.2v23.3h-0.5h-0.5l-0.5-0.1l-0.5-0.1l-0.5-0.1l-0.5-0.1l-0.5-0.2l-0.6-0.2
	l-0.5-0.2l-0.5-0.2L140,62l-0.5-0.3l-0.5-0.3l-0.4-0.4l-0.4-0.4l-0.4-0.4l-0.4-0.4l-0.4-0.5l-0.4-0.5l-0.3-0.5l-0.3-0.5l-0.3-0.5
	l-0.2-0.5l-0.2-0.5l-0.2-0.5l-0.2-0.5l-0.1-0.5l-0.1-0.5l-0.1-0.5l-0.1-0.5v-0.5V29.4h0.5h0.5l0.5,0.1l0.5,0.1l0.5,0.1l0.5,0.1
	L138,30l0.5,0.1l0.5,0.2l0.5,0.2l0.5,0.3l0.5,0.3l0.5,0.3l0.4,0.4l0.4,0.4l0.4,0.4l0.4,0.4l0.4,0.5l0.4,0.5l0.3,0.5L144,35l0.4,0.5
	l0.2,0.5l0.2,0.5L145,37l0.2,0.5l0.1,0.5l0.1,0.5l0.1,0.5v0.5L145.7,40.2z M156.8,29.3v0.5l-0.1,0.5l-0.1,0.5l-0.2,0.5l-0.2,0.5
	l-0.3,0.5l-0.3,0.5l-0.4,0.4l-0.4,0.4l-0.5,0.3l-0.5,0.3l-0.5,0.2l-0.5,0.2l-0.5,0.1l-0.5,0.1h-0.5h-0.5l-0.5-0.1l-0.5-0.1l-0.5-0.2
	l-0.5-0.2l-0.5-0.3l-0.5-0.3l-0.4-0.4l-0.4-0.4l-0.3-0.5l-0.3-0.5l-0.2-0.5l-0.2-0.5l-0.1-0.5l-0.1-0.5v-0.5V11.7v-0.5l0.1-0.5
	l0.1-0.5l0.1-0.5l0.1-0.5l0.2-0.5l0.2-0.5l0.2-0.5l0.2-0.5l0.2-0.6l0.3-0.5l0.3-0.5l0.3-0.5l0.4-0.5l0.4-0.4l0.4-0.4l0.4-0.4
	l0.5-0.4l0.5-0.3l0.5-0.3l0.5-0.3l0.5-0.2l0.5-0.2l0.5-0.2l0.5-0.2l0.5-0.1l0.5-0.1l0.5-0.1l0.5-0.1h0.5h0.5L156.8,29.3z
	 M146.2,69.3l0.5-0.1l0.5-0.1l0.5-0.2l0.5-0.2l0.5-0.3l0.5-0.3l0.4-0.4l0.4-0.4l0.3-0.5l0.3-0.5l0.2-0.5l0.2-0.5l0.1-0.5l0.1-0.5
	v-0.5v0.6l0.1,0.6l0.1,0.6l0.2,0.5l0.2,0.5l0.3,0.5l0.3,0.4l0.4,0.4l0.4,0.4l0.4,0.3l0.5,0.3l0.5,0.2l0.5,0.2l0.5,0.1l0.5,0.1h0.5
	v11.4h-0.5l-0.5,0.1l-0.5,0.1l-0.6,0.2l-0.5,0.2l-0.5,0.3l-0.4,0.3l-0.4,0.4l-0.4,0.4l-0.3,0.4l-0.3,0.5l-0.2,0.5l-0.2,0.5l-0.1,0.6
	l-0.1,0.6v0.6v-0.5l-0.1-0.5l-0.1-0.5l-0.2-0.5l-0.2-0.5l-0.3-0.5l-0.3-0.5l-0.4-0.4l-0.4-0.4l-0.5-0.3l-0.5-0.3l-0.5-0.2l-0.5-0.2
	l-0.5-0.1l-0.5-0.1h-0.5V69.3H146.2z M167.4,29.3h0.5v23.4v0.5l-0.1,0.5l-0.1,0.5l-0.1,0.5l-0.1,0.5l-0.2,0.5l-0.2,0.5l-0.2,0.5
	l-0.2,0.5l-0.3,0.5l-0.3,0.5l-0.3,0.5l-0.3,0.4l-0.4,0.5l-0.4,0.4l-0.4,0.4l-0.4,0.4l-0.5,0.4l-0.5,0.3l-0.5,0.3l-0.5,0.3l-0.5,0.2
	l-0.5,0.2l-0.5,0.2l-0.5,0.2l-0.5,0.1l-0.5,0.1l-0.5,0.1l-0.5,0.1h-0.5h-0.5V40.2v-0.5l0.1-0.5l0.1-0.5l0.1-0.5l0.1-0.5l0.2-0.5
	l0.2-0.5l0.2-0.5l0.2-0.5l0.3-0.5l0.3-0.5L159,34l0.4-0.5l0.4-0.5l0.4-0.4l0.4-0.4l0.4-0.4l0.5-0.4l0.5-0.3l0.5-0.3l0.5-0.3l0.5-0.2
	l0.5-0.2l0.5-0.2l0.5-0.2l0.5-0.1l0.5-0.1l0.5-0.1l0.5-0.1L167.4,29.3z M179.1,23.7h-0.5l-0.5,0.1l-0.5,0.1l-0.5,0.2l-0.5,0.2
	l-0.5,0.3l-0.4,0.3l-0.4,0.3l-0.4,0.4l-0.3,0.5l-0.3,0.5l-0.2,0.5l-0.2,0.5l-0.1,0.5l-0.1,0.5v0.5v-0.5l-0.1-0.5l-0.1-0.5l-0.2-0.5
	l-0.2-0.5l-0.3-0.5l-0.3-0.5l-0.4-0.4l-0.4-0.4l-0.5-0.4l-0.5-0.3L170,24l-0.5-0.2l-0.5-0.1l-0.5-0.1H168V0.8h0.5h0.5l0.5,0.1L170,1
	l0.5,0.1l0.5,0.1l0.5,0.2l0.5,0.2l0.5,0.2L173,2l0.5,0.3l0.5,0.3l0.5,0.3l0.5,0.3l0.4,0.4l0.4,0.4l0.4,0.4l0.4,0.4l0.4,0.5l0.3,0.5
	l0.3,0.5l0.3,0.5l0.3,0.5l0.2,0.5l0.3,0.5l0.2,0.5l0.1,0.5l0.1,0.5l0.1,0.5l0.1,0.5v0.5v0.5L179.1,23.7z M179.1,86.4v0.5v0.5
	l-0.1,0.5l-0.2,0.5l-0.2,0.5l-0.3,0.5l-0.3,0.5l-0.4,0.4l-0.4,0.4l-0.5,0.3l-0.5,0.3l-0.5,0.3l-0.5,0.2l-0.5,0.1l-0.5,0.1h-0.5H173
	l-0.5-0.1l-0.5-0.1l-0.5-0.2l-0.5-0.2l-0.5-0.3l-0.5-0.3l-0.4-0.4l-0.4-0.4l-0.3-0.5l-0.3-0.5l-0.2-0.5l-0.2-0.5l-0.1-0.5L168,87
	v-0.5V63.6v-0.5l0.1-0.5l0.1-0.5l0.2-0.5l0.2-0.5l0.3-0.5l0.3-0.5l0.4-0.4l0.4-0.4l0.5-0.3l0.5-0.3l0.5-0.2l0.5-0.2l0.5-0.1l0.5-0.1
	h0.5h0.5h0.5l0.5,0.1l0.5,0.2l0.5,0.2l0.5,0.3l0.5,0.3l0.4,0.4l0.4,0.4l0.3,0.5l0.3,0.5l0.3,0.5l0.2,0.5l0.1,0.5l0.1,0.5v0.5V86.4z
	 M168,126.4h0.5l0.5-0.1l0.5-0.1l0.5-0.2l0.5-0.2l0.5-0.3l0.4-0.3l0.4-0.4l0.4-0.4l0.3-0.4l0.3-0.5l0.2-0.5l0.2-0.5l0.1-0.6l0.1-0.6
	v-0.6v0.5l0.1,0.5l0.1,0.5l0.2,0.5l0.2,0.5l0.3,0.5l0.3,0.5l0.4,0.4l0.5,0.4l0.5,0.3l0.5,0.3l0.5,0.2l0.5,0.2l0.5,0.1l0.5,0.1h0.5
	V149h-0.5H178l-0.5-0.1l-0.5-0.1l-0.5-0.1l-0.5-0.1l-0.5-0.2l-0.5-0.2l-0.5-0.2l-0.5,0l-0.5-0.3l-0.5-0.3l-0.5-0.3l-0.4-0.4
	l-0.4-0.4l-0.4-0.4l-0.4-0.4l-0.4-0.4l-0.3-0.5l-0.3-0.5l-0.3-0.5l-0.3-0.5l-0.2-0.5l-0.2-0.5l-0.2-0.5l-0.2-0.5l-0.1-0.5l-0.1-0.5
	l-0.1-0.6l-0.1-0.5v-0.5V138L168,126.4z M156.9,109.8V86.5h0.5h0.5l0.5,0.1l0.5,0.1l0.5,0.1l0.5,0.1l0.5,0.2l0.5,0.2l0.5,0.2
	l0.5,0.2l0.5,0.3l0.5,0.3l0.5,0.3l0.5,0.4l0.4,0.4l0.4,0.4l0.4,0.4l0.4,0.4l0.4,0.5l0.3,0.5l0.3,0.5l0.3,0.5l0.2,0.5l0.2,0.5
	l0.2,0.5l0.2,0.5l0.1,0.5l0.1,0.5l0.1,0.5l0.1,0.5v0.5v23.3h-0.5H167l-0.5-0.1l-0.5-0.1l-0.5-0.1L165,120l-0.5-0.2l-0.5-0.2
	l-0.5-0.2l-0.5-0.2l-0.5-0.3l-0.5-0.3l-0.5-0.3l-0.4-0.4l-0.4-0.4l-0.4-0.4l-0.4-0.4l-0.4-0.4L159,116l-0.3-0.5l-0.3-0.5l-0.3-0.5
	l-0.2-0.5l-0.2-0.5l-0.2-0.5l-0.2-0.5l-0.1-0.5l-0.1-0.5L157,111l-0.1-0.5L156.9,109.8z M145.6,120.7v-0.5l0.1-0.5l0.1-0.5l0.2-0.5
	l0.2-0.5l0.3-0.5l0.3-0.5l0.4-0.4l0.4-0.4l0.5-0.3l0.5-0.3l0.5-0.2l0.5-0.2l0.5-0.1l0.5-0.1h0.5h0.5l0.5,0.1l0.5,0.1l0.5,0.2
	l0.5,0.2l0.5,0.3l0.5,0.3l0.4,0.4l0.4,0.4l0.3,0.5l0.3,0.5l0.2,0.5l0.2,0.5l0.1,0.5l0.1,0.5v0.5v17.7v0.5v0.5l-0.1,0.5l-0.1,0.5
	l-0.1,0.5l-0.2,0.5l-0.2,0.5l-0.2,0.5l-0.2,0.5l-0.3,0.5l-0.3,0.5l-0.3,0.5l-0.4,0.5l-0.4,0.4l-0.4,0.4l-0.4,0.4l-0.4,0.4l-0.4,0.4
	l-0.5,0.3l-0.5,0.3l-0.5,0.3l-0.5,0.2l-0.5,0.2l-0.5,0.2l-0.5,0.2l-0.5,0.1l-0.5,0.1l-0.5,0.1l-0.5,0.1h-0.5h-0.5L145.6,120.7z
	 M135,120.6h-0.5V97.3v-0.5l0.1-0.5l0.1-0.5l0.1-0.5l0.1-0.5l0.2-0.5l0.2-0.5l0.2-0.5l0.2-0.5L136,92l0.3-0.5l0.3-0.5l0.3-0.5
	l0.4-0.4l0.4-0.4l0.4-0.4l0.4-0.4l0.4-0.4l0.5-0.3l0.5-0.3l0.5-0.3l0.5-0.2l0.5-0.2L142,87l0.5-0.2l0.5-0.1l0.5-0.1l0.5-0.1l0.5-0.1
	h0.5h0.5v23.4v0.5v0.5l-0.1,0.5l-0.1,0.5l-0.1,0.5l-0.2,0.5l-0.2,0.5l-0.2,0.5l-0.2,0.5l-0.3,0.5l-0.3,0.5l-0.3,0.5l-0.4,0.5
	l-0.4,0.4l-0.4,0.4l-0.4,0.4l-0.4,0.4l-0.4,0.4l-0.5,0.3l-0.5,0.3l-0.4,0.3l-0.5,0.2l-0.5,0.2l-0.5,0.2l-0.5,0.2l-0.5,0.1l-0.5,0.1
	l-0.5,0.1l-0.5,0.1L135,120.6z M123.4,126.4h0.5l0.5-0.1l0.5-0.1l0.5-0.2l0.5-0.2l0.5-0.3l0.4-0.3l0.4-0.4l0.4-0.4l0.3-0.4l0.3-0.5
	l0.2-0.5l0.2-0.5l0.1-0.6l0.1-0.6v-0.6v0.5l0.1,0.5l0.1,0.5l0.2,0.5l0.2,0.5l0.3,0.5l0.3,0.5l0.4,0.4l0.4,0.4l0.5,0.3l0.5,0.3
	l0.5,0.2l0.5,0.2l0.5,0.1l0.5,0.1h0.5V149H134h-0.5l-0.5-0.1l-0.5-0.1L132,149l-0.5-0.1l-0.5-0.2l-0.5-0.2l-0.5-0.2l-0.5-0.2
	l-0.5-0.3l-0.5-0.3l-0.5-0.3l-0.5-0.4l-0.4-0.4l-0.4-0.4l-0.4-0.4l-0.4-0.4l-0.3-0.5l-0.3-0.5l-0.3-0.5l-0.3-0.5l-0.2-0.5l-0.2-0.5
	l-0.2-0.5l-0.2-0.5l-0.1-0.5l-0.1-0.5l-0.1-0.5l-0.1-0.5v-0.5v-0.5L123.4,126.4z M112.3,109.8v-0.5V86.5h0.5h0.5l0.5,0.1l0.5,0.1
	l0.5,0.1l0.5,0.1l0.5,0.2l0.5,0.2l0.5,0.2l0.5,0.2l0.5,0.3l0.5,0.3l0.5,0.3l0.4,0.4l0.4,0.4l0.4,0.4l0.4,0.4l0.4,0.4l0.3,0.5
	l0.3,0.5l0.3,0.5l0.3,0.5l0.2,0.5l0.2,0.5l0.2,0.5l0.2,0.5l0.1,0.5l0.1,0.5l0.1,0.5l0.1,0.5v0.5v23.3h-0.5h-0.5l-0.5-0.1l-0.5-0.1
	l-0.5-0.1l-0.5-0.1l-0.5-0.2l-0.5-0.2l-0.5-0.2l-0.5-0.2l-0.5-0.3l-0.5-0.3l-0.5-0.3l-0.5-0.4l-0.4-0.4l-0.4-0.4l-0.4-0.4l-0.3-0.4
	l-0.4-0.5l-0.3-0.5l-0.3-0.5l-0.3-0.5l-0.2-0.5l-0.2-0.5l-0.2-0.5l-0.2-0.5l-0.1-0.5l-0.1-0.5l-0.1-0.5l-0.1-0.5L112.3,109.8z
	 M101.2,120.7v-0.5l0.1-0.5l0.1-0.5l0.2-0.5l0.2-0.5l0.3-0.5l0.3-0.5l0.4-0.4l0.4-0.4l0.5-0.3l0.5-0.3l0.5-0.2l0.5-0.2l0.5-0.1
	l0.5-0.1h0.5h0.5l0.5,0.1l0.5,0.1l0.5,0.2l0.5,0.2l0.5,0.3l0.5,0.3l0.4,0.4l0.4,0.4l0.3,0.5l0.3,0.5l0.2,0.5l0.2,0.5l0.1,0.5
	l0.1,0.5v0.5v17.7v0.5l-0.1,0.5l-0.1,0.5l-0.1,0.6l-0.1,0.5l-0.2,0.5l-0.2,0.5l-0.2,0.5L111,143l-0.3,0.5l-0.3,0.5l-0.3,0.5
	l-0.3,0.5l-0.4,0.4L109,146l-0.4,0.4l-0.4,0.4l-0.5,0.4l-0.5,0.3l-0.5,0.3l-0.5,0.3l-0.5,0.2l-0.5,0.2l-0.5,0.2l-0.5,0.2l-0.5,0.1
	l-0.5,0.1l-0.5,0.1l-0.5,0.1h-0.5h-0.5V120.7z M90.5,120.7H90V97.3v-0.5l0.1-0.5l0.1-0.5l0.1-0.5l0.1-0.5l0.2-0.5l0.2-0.5l0.2-0.5
	l0.2-0.5l0.3-0.5l0.3-0.5l0.3-0.5l0.3-0.5l0.4-0.4l0.4-0.4l0.4-0.4l0.4-0.4l0.4-0.4l0.5-0.3l0.5-0.3l0.5-0.3l0.5-0.2l0.5-0.2
	l0.5-0.2l0.5-0.2l0.5-0.1l0.5-0.1l0.5-0.1l0.5-0.1h0.5h0.5v22.9v0.5v0.5l-0.1,0.5l-0.1,0.5l-0.1,0.5l-0.1,0.5l-0.2,0.5l-0.2,0.5
	l-0.2,0.5l-0.2,0.5l-0.3,0.5l-0.3,0.5l-0.3,0.5l-0.3,0.5l-0.4,0.4l-0.4,0.4l-0.4,0.4l-0.4,0.4l-0.5,0.4l-0.5,0.3l-0.5,0.3l-0.5,0.3
	l-0.5,0.2l-0.5,0.2l-0.5,0.2l-0.5,0.2l-0.5,0.1l-0.5,0.1l-0.5,0.1l-0.5,0.1L90.5,120.7z M78.9,126.4h0.5l0.5-0.1l0.5-0.1L81,126
	l0.5-0.2l0.5-0.3l0.4-0.3l0.4-0.4l0.4-0.4l0.3-0.4l0.3-0.5L84,123l0.2-0.5l0.1-0.6l0.1-0.6v-0.6v0.5l0.1,0.5l0.1,0.5l0.2,0.5
	l0.2,0.5l0.3,0.5l0.3,0.5l0.4,0.4l0.4,0.4l0.5,0.3l0.5,0.3L88,126l0.5,0.2l0.5,0.1l0.5,0.1H90v22.8h-0.5H89l-0.5-0.1L88,149
	l-0.5-0.1l-0.5-0.1l-0.5-0.2l-0.5-0.2l-0.5-0.2L85,148l-0.5-0.3l-0.5-0.3l-0.5-0.3l-0.4-0.4l-0.4-0.4l-0.4-0.4l-0.4-0.4l-0.4-0.4
	l-0.3-0.5l-0.3-0.5l-0.3-0.5l-0.3-0.5l-0.2-0.5l-0.2-0.5l-0.2-0.5l-0.2-0.5l-0.1-0.5L79,140l-0.1-0.5l-0.1-0.5v-0.5V138L78.9,126.4z
	 M67.8,109.8V86.5h0.5h0.5l0.5,0.1l0.5,0.1l0.5,0.1l0.5,0.1l0.5,0.2l0.5,0.2l0.5,0.2l0.5,0.2l0.5,0.3l0.5,0.3l0.5,0.3l0.4,0.4
	l0.4,0.4l0.4,0.4l0.4,0.4l0.4,0.4l0.3,0.5l0.3,0.5l0.3,0.5l0.3,0.5l0.2,0.5l0.2,0.5l0.2,0.5l0.2,0.5l0.1,0.5l0.1,0.5l0.1,0.5
	l0.1,0.5v0.5v23.4h-0.5h-0.5l-0.5-0.1l-0.5-0.1l-0.5-0.1l-0.5-0.1l-0.5-0.2l-0.5-0.2l-0.5-0.2l-0.5-0.2l-0.5-0.3l-0.5-0.3l-0.5-0.3
	l-0.4-0.4l-0.4-0.4l-0.4-0.4l-0.4-0.4l-0.4-0.4l-0.3-0.5l-0.3-0.5l-0.3-0.5l-0.3-0.5l-0.2-0.5l-0.2-0.5l-0.2-0.5l-0.2-0.5L68,112
	l-0.1-0.5l-0.1-0.5l-0.1-0.5L67.8,109.8z M56.6,120.7v-0.5l0.1-0.5l0.1-0.5l0.2-0.5l0.2-0.5l0.3-0.5l0.3-0.5l0.4-0.4l0.4-0.4
	l0.5-0.3l0.5-0.3l0.5-0.2l0.5-0.2l0.5-0.1l0.5-0.1h0.5h0.5l0.5,0.1l0.5,0.1l0.5,0.2l0.5,0.2l0.5,0.3l0.5,0.3l0.4,0.4l0.4,0.4
	l0.3,0.5l0.3,0.5l0.2,0.5l0.2,0.5l0.1,0.5l0.1,0.5v0.5v17.6v0.5l-0.1,0.5l-0.1,0.5l-0.1,0.5l-0.1,0.5l-0.2,0.5l-0.2,0.5l-0.2,0.5
	l-0.2,0.5l-0.3,0.5l-0.3,0.5l-0.3,0.5l-0.3,0.5l-0.4,0.4l-0.4,0.4L64,146l-0.4,0.4l-0.4,0.4l-0.5,0.3l-0.5,0.3l-0.5,0.3l-0.5,0.2
	l-0.5,0.2l-0.5,0.2l-0.5,0.2l-0.5,0.1l-0.5,0.3l-0.5,0.1l-0.5,0.1h-0.5h-0.5L56.6,120.7z M46,120.6h-0.5V97.3v-0.5l0.1-0.5l0.1-0.5
	l0.1-0.5l0.1-0.5l0.2-0.5l0.2-0.5l0.2-0.5l0.2-0.5l0.3-0.5l0.3-0.5l0.3-0.5l0.4-0.5l0.4-0.4l0.4-0.4l0.4-0.4l0.4-0.4l0.4-0.4
	l0.5-0.3l0.5-0.3l0.5-0.3l0.5-0.2l0.5-0.2L53,87l0.5-0.2l0.5-0.1l0.5-0.1l0.5-0.1l0.5-0.1H56h0.5v23.5v0.5l-0.1,0.5l-0.1,0.5
	l-0.1,0.5l-0.1,0.5l-0.2,0.5l-0.2,0.5l-0.2,0.5l-0.2,0.5l-0.3,0.5l-0.3,0.5l-0.3,0.5l-0.3,0.5l-0.4,0.4l-0.4,0.4l-0.4,0.4l-0.4,0.4
	l-0.4,0.4l-0.5,0.3l-0.5,0.3l-0.5,0.3l-0.5,0.2l-0.5,0.2l-0.5,0.2l-0.5,0.2l-0.5,0.1l-0.5,0.1l-0.5,0.1l-0.5,0.1L46,120.6z
	 M34.3,126.4h0.5l0.5-0.1l0.5-0.1l0.5-0.2l0.5-0.2l0.5-0.3l0.4-0.3l0.4-0.4l0.4-0.4l0.3-0.4l0.3-0.5l0.2-0.5l0.2-0.5l0.1-0.6
	l0.1-0.6v-0.6v0.5l0.1,0.5l0.1,0.5l0.2,0.5l0.2,0.5l0.3,0.5l0.3,0.5l0.4,0.4l0.4,0.4l0.5,0.3l0.5,0.3l0.5,0.2l0.5,0.2l0.5,0.1
	l0.5,0.1h0.5v22.9h-0.5h-0.5l-0.5-0.1l-0.5-0.1l-0.5-0.1l-0.5-0.1l-0.5-0.2l-0.5-0.2l-0.5-0.2l-0.5-0.2l-0.5-0.3l-0.5-0.3l-0.5-0.3
	l-0.5-0.4l-0.4-0.4l-0.4-0.4l-0.4-0.4l-0.4-0.4l-0.4-0.5l-0.3-0.5l-0.3-0.5l-0.3-0.5l-0.2-0.5l-0.2-0.5l-0.2-0.5l-0.2-0.5l-0.1-0.5
	l-0.1-0.5l-0.1-0.5l-0.1-0.5v-0.5V138L34.3,126.4z M23.2,109.8V86.5h0.5h0.5l0.5,0.1l0.5,0.1l0.5,0.1l0.5,0.1l0.5,0.2l0.5,0.2
	l0.5,0.2l0.5,0.2l0.5,0.3l0.5,0.3l0.5,0.3l0.5,0.4l0.4,0.4l0.4,0.4l0.4,0.4l0.4,0.4l0.4,0.5l0.3,0.5l0.3,0.5l0.3,0.5l0.2,0.5
	l0.2,0.5l0.2,0.5l0.2,0.5l0.1,0.5l0.1,0.5l0.1,0.5l0.1,0.5v0.5v23.4h-0.5h-0.5l-0.5-0.1l-0.5-0.1l-0.5-0.1l-0.5-0.1l-0.5-0.2
	l-0.5-0.2l-0.5-0.2l-0.5-0.2l-0.5-0.3l-0.5-0.3l-0.5-0.3l-0.5-0.4l-0.4-0.4l-0.4-0.4l-0.4-0.4l-0.4-0.4l-0.4-0.5l-0.3-0.5l-0.3-0.5
	l-0.3-0.5l-0.2-0.5l-0.2-0.5l-0.2-0.5l-0.2-0.5l-0.1-0.5l-0.1-0.5l-0.1-0.5l-0.1-0.5C23.2,110.4,23.2,109.8,23.2,109.8z M12,120.7
	v-0.5l0.1-0.5l0.1-0.5l0.2-0.5l0.2-0.5l0.3-0.5l0.3-0.5l0.4-0.4l0.4-0.4l0.5-0.3l0.5-0.3l0.5-0.2l0.5-0.2l0.5-0.1l0.5-0.1h0.5H18
	l0.5,0.1l0.5,0.1l0.5,0.2l0.5,0.2l0.5,0.3l0.5,0.3l0.4,0.4l0.4,0.4l0.3,0.5l0.3,0.5l0.2,0.5l0.2,0.5l0.1,0.5l0.1,0.5v0.5v17.1v0.5
	v0.5l-0.1,0.5l-0.1,0.5l-0.1,0.5l-0.1,0.5l-0.2,0.5l-0.2,0.5l-0.2,0.5l-0.2,0.5l-0.3,0.5l-0.3,0.5l-0.3,0.5l-0.4,0.5l-0.4,0.4
	l-0.4,0.4l-0.4,0.4l-0.4,0.4l-0.5,0.4l-0.5,0.3l-0.5,0.3l-0.5,0.3l-0.5,0.5l-0.5,0.2l-0.5,0.2l-0.5,0.2l-0.5,0.1l-0.5,0.1l-0.5,0.1
	l-0.5,0.1h-0.5h-0.5L12,120.7z M0.9,120.6V97.3v-0.5L1,96.3v-0.6l0.1-0.5l0.1-0.5l0.2-0.5l0.2-0.5l0.2-0.5L2,92.7L2.3,92l0.3-0.5
	L3,91.1l0.4-0.5l0.4-0.4l0.4-0.4l0.4-0.4L5,89l0.5-0.4L6,88.3L6.5,88L7,87.7l0.5-0.2L8,87.3L8.4,87l0.5-0.2l0.5-0.1l0.5-0.1l0.5-0.1
	l0.5-0.1h0.5H12v23.4v0.5l-0.1,0.5l-0.1,0.5l-0.1,0.5l-0.1,0.5l-0.2,0.5l-0.2,0.5L11,114l-0.2,0.5l-0.3,0.5l-0.3,0.5L9.9,116
	l-0.4,0.5l-0.4,0.4l-0.3,0.6L8.4,118L8,118.4l-0.5,0.4L7,119.1l-0.5,0.3L6,119.6l-0.5,0.2L5,120.1l-0.5,0.2L4,120.5l-0.5,0.1
	L3,120.7l-0.5,0.1L2,120.9H1.4H0.9V120.6z M0.9,29.4h0.5h0.5l0.5,0.1l0.5,0.1l0.5,0.1H4l0.5,0.2L5,30.1l0.5,0.2L6,30.6l0.5,0.3
	L7,31.2l0.5,0.3L8,31.9l0.4,0.4l0.4,0.4l0.4,0.4l0.4,0.5L9.9,34l0.3,0.5l0.3,0.5l0.3,0.5L11,36l0.2,0.5l0.2,0.5l0.2,0.5l0.1,0.5
	l0.1,0.5l0.1,0.5l0.1,0.5V40v23.5h-0.5H11l-0.5-0.1L10,63.5l-0.5-0.1L9,63.3l-0.5-0.2L8,62.9l-0.5-0.2L7,62.5l-0.5-0.3L6,61.9
	l-0.5-0.3L5,61.2l-0.4-0.4l-0.4-0.4L3.7,60l-0.4-0.5L3,59l-0.3-0.5L2.4,58l-0.3-0.5L1.9,57l-0.2-0.5L1.5,56l-0.2-0.5L1.2,55
	l-0.1-0.5L1,53.9l-0.1-0.5v-0.5v-0.5V29.4z"/>
</svg>
