<?xml version="1.0" encoding="utf-8"?>
<!-- Generator: Adobe Illustrator 22.1.0, SVG Export Plug-In . SVG Version: 6.00 Build 0)  -->
<svg version="1.1" id="Layer_2_1_" xmlns="http://www.w3.org/2000/svg" xmlns:xlink="http://www.w3.org/1999/xlink" x="0px" y="0px"
	 width="256px" height="224px" viewBox="0 0 256 224" style="enable-background:new 0 0 256 224;" xml:space="preserve">
<path d="M0,0v224h256V0H0z M223.1,1.1h0.7h0.7l0.7,0.1l0.7,0.2l0.7,0.2l0.7,0.2l0.7,0.3l0.7,0.3l0.7,0.3l0.7,0.4l0.7,0.4l0.7,0.5
	l0.7,0.5l0.7,0.5l0.6,0.6l0.6,0.6l0.6,0.6l0.5,0.7l0.5,0.7l0.5,0.7l0.4,0.7l0.4,0.8l0.3,0.8l0.3,0.8l0.3,0.8l0.2,0.8l0.2,0.8
	l0.2,0.8l0.1,0.8l0.1,0.8v0.8v26.3v0.6l-0.1,0.8l-0.2,0.8l-0.3,0.8l-0.3,0.8l-0.4,0.7l-0.5,0.7l-0.6,0.7l-0.6,0.6l-0.7,0.5l-0.7,0.4
	l-0.7,0.3l-0.7,0.3l-0.7,0.2l-0.7,0.1h-0.7h-0.7l-0.7-0.1l-0.7-0.2l-0.7-0.3l-0.7-0.3l-0.7-0.4l-0.7-0.5l-0.6-0.6l-0.6-0.7l-0.5-0.7
	l-0.4-0.7l-0.3-0.8l-0.3-0.8l-0.2-0.8l-0.1-0.8v-0.8L223.1,1.1z M238.9,103.5v17h-0.7l-0.7,0.1l-0.7,0.2l-0.7,0.3l-0.7,0.4l-0.7,0.4
	l-0.7,0.5l-0.6,0.6l-0.5,0.7l-0.5,0.7l-0.4,0.7l-0.3,0.8l-0.2,0.8l-0.2,0.8l-0.1,0.8v0.8v-0.8l-0.1-0.8l-0.2-0.8l-0.3-0.8l-0.3-0.8
	l-0.4-0.7l-0.5-0.7l-0.5-0.6l-0.6-0.6l-0.6-0.5l-0.8-0.5l-0.7-0.4l-0.7-0.3l-0.8-0.2l-0.8-0.1h-0.8v-17h0.8l0.8-0.1l0.8-0.2l0.7-0.3
	l0.7-0.4l0.7-0.4l0.6-0.5l0.6-0.6l0.5-0.6l0.5-0.7l0.4-0.7l0.3-0.8l0.3-0.8l0.2-0.8l0.1-0.8V95v0.8l0.1,0.8l0.2,0.8l0.2,0.8l0.3,0.8
	l0.4,0.7l0.5,0.7l0.5,0.6l0.6,0.6l0.7,0.5l0.7,0.4l0.7,0.4l0.7,0.3l0.7,0.2l0.7,0.1H238.9z M208.6,43.8l0.7,0.1L210,44l0.7,0.2
	l0.7,0.2l0.7,0.3l0.7,0.3l0.7,0.3l0.7,0.4l0.7,0.4l0.9,0.4l0.7,0.5l0.7,0.5l0.6,0.6l0.6,0.6l0.6,0.6l0.5,0.7l0.5,0.7l0.5,0.7
	l0.4,0.7l0.4,0.8l0.4,0.8l0.3,0.8l0.3,0.8l0.2,0.8l0.2,0.8l0.2,0.8l0,0.8l0,0.8v0.8V95h-0.7h-0.7l-0.7-0.1l-0.7-0.1l-0.7-0.2
	l-0.7-0.2l-0.7-0.3l-0.7-0.3l-0.7-0.3l-0.7-0.4l-0.7-0.4l-0.7-0.5l-0.7-0.5l-0.7-0.5l-0.6-0.6l-0.6-0.6l-0.6-0.6l-0.5-0.7l-0.4-0.7
	l-0.5-0.7l-0.4-0.7l-0.4-0.8l-0.3-0.8l-0.3-0.8l-0.3-0.8l-0.2-0.8l-0.2-0.8l-0.2-0.8l-0.1-0.8l-0.1-0.8v-0.8v-35h0.7L208.6,43.8z
	 M191.3,18.2v-0.8v-0.8l0.1-0.8l0.1-0.8l0.2-0.8l0.2-0.8l0.2-0.8l0.3-0.8l0.3-0.8l0.3-0.8l0.4-0.8l0.4-0.7l0.5-0.7l0.5-0.7l0.5-0.7
	L196,6l0.6-0.6l0.6-0.6l0.6-0.5l0.7-0.5l0.7-0.5l0.7-0.4l0.7-0.4l0.7-0.3l0.7-0.3l0.7-0.3l0.7-0.2l0.8-0.2l0.7-0.1l0.7-0.1h0.7h0.7
	v34h-0.7l-0.7,0.1l-0.7,0.2l-0.7,0.3l-0.7,0.4l-0.7,0.4l-0.7,0.5l-0.6,0.6l-0.6,0.7l-0.5,0.7l-0.4,0.7l-0.3,0.8l-0.3,0.8l-0.2,0.8
	l-0.1,0.8v0.8v-0.8L199,42l-0.2-0.8v-0.7l-0.3-0.8l-0.4-0.7l-0.5-0.7l-0.5-0.6l-0.6-0.6l-0.6-0.5l-0.7-0.4l-0.7-0.4l-0.7-0.3
	l-0.8-0.2l-0.8-0.1h-0.8L191.3,18.2z M207.2,94.9V129v0.8l-0.1,0.8l-0.2,0.8l-0.3,0.8l-0.3,0.8l-0.4,0.7l-0.5,0.7l-0.6,0.6l-0.6,0.6
	l-0.7,0.5l-0.7,0.4l-0.7,0.4l-0.7,0.3l-0.7,0.2l-0.7,0.1h-0.7h-0.7l-0.7-0.1l-0.7-0.2l-0.7-0.3l-0.7-0.4l-0.7-0.4l-0.7-0.5l-0.6-0.6
	l-0.6-0.6l-0.5-0.7l-0.4-0.7l-0.3-0.8l-0.2-0.8l-0.2-0.8l-0.1-0.8V129V94.9v-0.8l0.1-0.8l0.2-0.8l0.2-0.8l0.3-0.8l0.4-0.7l0.5-0.7
	l0.6-0.7l0.6-0.6l0.7-0.5l0.7-0.4l0.7-0.3l0.7-0.3l0.7-0.2l0.7-0.1h0.7h0.7l0.7,0.1l0.7,0.2l0.7,0.3l0.7,0.3l0.7,0.4l0.7,0.5
	l0.6,0.6l0.6,0.7l0.5,0.7l0.4,0.7l0.3,0.8l0.3,0.8l0.2,0.8l0.1,0.8V94.9z M175.6,59.3l0.1-0.8l0.1-0.8l0.2-0.8l0.2-0.8l0.2-0.8
	l0.3-0.8l0.3-0.8l0.3-0.8l0.4-0.8l0.4-0.7l0.5-0.7l0.5-0.7l0.5-0.7l0.6-0.6l0.6-0.6l0.6-0.6L182,47l0.7-0.5l0.7-0.5l0.7-0.4l0.7-0.4
	l0.7-0.3l0.7-0.3l0.7-0.3l0.7-0.2l0.7-0.2l0.7-0.1l0.7-0.1h0.7h0.7v34.8v0.8l-0.1,0.8l-0.1,0.8l-0.2,0.8l-0.2,0.8l-0.2,0.8l-0.3,0.8
	l-0.3,0.8l-0.4,0.8l-0.4,0.8l-0.4,0.7l-0.5,0.7l-0.5,0.7l-0.5,0.7l-0.6,0.6l-0.6,0.6l-0.6,0.6l-0.6,0.5l-0.7,0.5l-0.7,0.5l-0.7,0.4
	l-0.7,0.4l-0.7,0.3l-0.7,0.3l-0.7,0.2l-0.7,0.2l-0.7,0.2l-0.7,0.1l-0.7,0.1h-0.7h-0.7V60.1L175.6,59.3z M159.7,1.1h0.7h0.7l0.7,0.1
	l0.7,0.1l0.7,0.2l0.7,0.2l0.7,0.3l0.7,0.3l0.7,0.3l0.7,0.4l0.7,0.4l0.7,0.5l0.7,0.6l0.6,0.5l0.6,0.6l0.6,0.6l0.6,0.6l0.5,0.7
	l0.5,0.7l0.5,0.7l0.4,0.7l0.4,0.8l0.4,0.8l0.3,0.8l0.3,0.8l0.2,0.8l0.2,0.8l0.2,0.8l0.1,0.8v0.8v0.8v26.3v0.6l-0.1,0.8l-0.2,0.8
	l-0.2,0.8l-0.3,0.8l-0.4,0.7l-0.5,0.7l-0.5,0.7l-0.6,0.6l-0.7,0.5l-0.7,0.4l-0.7,0.3l-0.7,0.3l-0.6,0.2l-0.7,0.1h-0.7H167l-0.7-0.1
	l-0.7-0.2l-0.7-0.3l-0.7-0.3l-0.7-0.4l-0.7-0.5l-0.6-0.6l-0.5-0.7l-0.5-0.7l-0.5-0.8l-0.3-0.8l-0.2-0.8l-0.2-0.8l-0.3-0.7v-0.8
	L159.7,1.1z M175.5,103.5v17h-0.7l-0.7,0.1l-0.8,0.2l-0.7,0.3l-0.7,0.4l-0.7,0.4l-0.7,0.5l-0.6,0.6l-0.6,0.7l-0.5,0.7l-0.4,0.7
	l-0.3,0.8l-0.3,0.8l-0.2,0.8l-0.1,0.8v0.8v-0.8l-0.1-0.8l-0.2-0.8l-0.3-0.8l-0.3-0.8l-0.5-0.8l-0.5-0.7L165,123l-0.4-0.5L164,122
	l-0.7-0.4l-0.7-0.4l-0.7-0.3l-0.8-0.2l-0.8-0.1h-0.7v-17.1h0.8l0.8-0.1l0.8-0.2l0.7-0.3l0.7-0.4l0.7-0.4l0.6-0.5l0.6-0.6l0.5-0.6
	l0.5-0.7l0.4-0.7l0.3-0.8l0.3-0.8l0.2-0.8l0.1-0.8V95v0.8l0.1,0.8l0.2,0.8l0.3,0.8l0.3,0.8l0.4,0.7l0.5,0.7l0.6,0.6l0.6,0.6l0.7,0.5
	l0.7,0.4l0.7,0.4l0.7,0.3l0.7,0.2l0.7,0.1H175.5z M145.3,43.8l0.7,0.1l0.7,0.1l0.7,0.2l0.7,0.2l0.7,0.3l0.7,0.3l0.7,0.3l0.7,0.4
	l0.7,0.4l0.7,0.5l0.7,0.5l0.6,0.5l0.6,0.6l0.6,0.6l0.6,0.6l0.5,0.7l0.5,0.7l0.5,0.7l0.4,0.7l0.4,0.8l0.3,0.8l0.6,0.7l0.3,0.8
	l0.2,0.8l0.2,0.8l0.1,0.8l0.1,0.8l0.1,0.8v0.8V95h-0.7h-0.7l-0.7-0.1l-0.7-0.1l-0.7-0.2l-0.7-0.2l-0.7-0.3l-0.7-0.3l-0.7-0.3
	l-0.7-0.4l-0.7-0.4l-0.7-0.5l-0.7-0.5l-0.6-0.5l-0.5-0.6l-0.6-0.6l-0.6-0.6l-0.5-0.7l-0.5-0.7l-0.5-0.7l-0.4-0.7l-0.4-0.8l-0.4-0.8
	l-0.3-0.8l-0.3-0.8l-0.2-0.8l-0.2-0.8l-0.2-0.8l-0.1-0.8l-0.1-0.8v-0.8V43.8h0.7H145.3z M128,18.2v-0.8v-0.8l0.1-0.8l0.1-0.8
	l0.2-0.8l0.1-0.7l0.2-0.8l0.3-0.8l0.3-0.8l0.4-0.7l0.4-0.8l0.5-0.7l0.5-0.7l0.4-0.8l0.5-0.6l0.6-0.6l0.6-0.6l0.6-0.6l0.7-0.5
	l0.7-0.5l0.7-0.5l0.7-0.4l0.7-0.4l0.7-0.3l0.7-0.3l0.7-0.3l0.7-0.2l0.7-0.2l0.7-0.1l0.7-0.1h0.7h0.7v34H143l-0.7,0.1l-0.7,0.2
	l-0.7,0.3l-0.7,0.4l-0.7,0.4l-0.7,0.5l-0.6,0.6l-0.5,0.7l-0.5,0.7l-0.4,0.7l-0.3,0.8l-0.2,0.8l-0.2,0.8l-0.1,0.8v0.8V43l-0.1-0.8
	l-0.2-0.8l-0.3-0.8l-0.5-0.7l-0.4-0.7l-0.5-0.7l-0.5-0.6l-0.6-0.6l-0.6-0.5l-0.7-0.4l-0.7-0.4l-0.7-0.3l-0.8-0.2l-0.8-0.1h-0.8
	L128,18.2z M143.9,94.9V129v0.8l-0.1,0.8l-0.2,0.8l-0.2,0.8l-0.3,0.8l-0.4,0.7l-0.5,0.7l-0.5,0.6l-0.6,0.6l-0.7,0.5l-0.7,0.4
	l-0.7,0.4l-0.7,0.3l-0.7,0.2l-0.7,0.1h-0.7h-0.7l-0.7-0.1l-0.8-0.1l-0.7-0.3l-0.7-0.4l-0.7-0.4l-0.7-0.5l-0.6-0.6l-0.6-0.6l-0.5-0.7
	l-0.4-0.7l-0.3-0.8l-0.3-0.8l-0.2-0.8v-0.8v-0.8V95v-0.8l0.1-0.8l0.2-0.8l0.3-0.8l0.3-0.8l0.4-0.7l0.5-0.7l0.6-0.7l0.6-0.6l0.7-0.5
	l0.7-0.4l0.7-0.3l0.7-0.3l0.7-0.2h0.7h0.7h0.7l0.7,0.1l0.7,0.2l0.7,0.3l0.7,0.3l0.7,0.4l0.7,0.5l0.6,0.6l0.5,0.5l0.5,0.7l0.4,0.7
	l0.3,0.8l0.2,0.8l0.2,0.8l0.1,0.8V94.9z M112.1,59.3l0.1-0.8l0.1-0.8l0.2-0.8l0.2-0.8l0.2-0.8l0.3-0.8l0.3-0.8l0.4-0.8l0.4-0.8
	l0.4-0.7l0.5-0.7l0.5-0.7l0.5-0.7l0.6-0.6l0.6-0.6l0.6-0.6l0.7-0.5l0.7-0.5l0.7-0.5l0.7-0.4l0.7-0.4l0.7-0.3l0.7-0.3l0.7-0.3
	l0.7-0.2l0.7-0.2l0.7-0.1l0.7-0.1h0.7h0.7v34.8v0.8l-0.1,0.8l-0.1,0.8l-0.2,0.8l-0.2,0.8l-0.2,0.8l-0.3,0.8l-0.3,0.8l-0.3,0.8
	l-0.4,0.8l-0.4,0.7l-0.5,0.7l-0.5,0.7l-0.5,0.7l-0.6,0.6l-0.6,0.6l-0.6,0.6l-0.7,0.5l-0.7,0.5l-0.7,0.5l-0.7,0.4l-0.7,0.4l-0.7,0.3
	l-0.7,0.3l-0.7,0.2l-0.7,0.2l-0.7,0.2l-0.7,0.1l-0.7,0.1h-0.7h-0.7v-34V60L112.1,59.3z M96.4,1.1h0.7h0.7l0.7,0.1l0.7,0.1l0.7,0.2
	l0.7,0.2l0.7,0.3l0.7,0.3l0.7,0.3l0.7,0.4l0.7,0.4l0.7,0.5l0.7,0.5l0.7,0.5l0.6,0.6l0.6,0.6l0.6,0.6l0.5,0.7l0.5,0.7l0.5,0.7
	l0.4,0.7l0.4,0.8l0.4,0.8l0.3,0.8l0.3,0.8l0.2,0.8l0.2,0.8l0.2,0.8l0.1,0.8l0.1,0.8v0.8v26.3v0.7l-0.1,0.8l-0.2,0.8l-0.3,0.8
	l-0.3,0.8l-0.4,0.7l-0.5,0.7l-0.6,0.7l-0.6,0.6l-0.7,0.5l-0.7,0.4l-0.7,0.3l-0.7,0.3l-0.7,0.2l-0.7,0.1h-0.7h-0.7l-0.7-0.1l-0.7-0.2
	l-0.7-0.3l-0.7-0.3l-0.7-0.4l-0.7-0.5l-0.6-0.6l-0.6-0.6l-0.5-0.7l-0.4-0.7L96.9,47l-0.3-0.8l-0.1-0.9l-0.1-0.8v-0.8V1.1z
	 M112.1,103.5v17h-0.7l-0.7,0.1l-0.7,0.2l-0.7,0.3l-0.7,0.4l-0.7,0.4l-0.7,0.5l-0.6,0.6l-0.5,0.7l-0.5,0.7l-0.4,0.7l-0.3,0.8
	l-0.2,0.8l-0.3,0.8l-0.1,0.8v0.8v-0.8l-0.1-0.8l-0.2-0.8l-0.3-0.8l-0.3-0.8l-0.4-0.7l-0.5-0.7l-0.5-0.6l-0.6-0.6l-0.6-0.5l-0.7-0.4
	l-0.7-0.4l-0.8-0.3l-0.8-0.2l-0.8-0.1h-0.8v-17.1H97l0.8-0.1l0.8-0.2l0.7-0.3l0.7-0.4l0.7-0.4l0.6-0.5l0.6-0.6l0.5-0.6l0.5-0.7
	l0.4-0.7l0.3-0.8l0.3-0.8l0.2-0.8l0.1-0.8V95v0.8l0.1,0.8l0.2,0.8l0.3,0.8l0.3,0.8l0.4,0.7l0.5,0.7l0.6,0.6l0.6,0.6l0.7,0.5l0.7,0.4
	l0.7,0.4l0.7,0.3l0.7,0.2l0.7,0.1H112.1z M81.9,43.8l0.7,0.1l0.7,0.1l0.7,0.2l0.7,0.2l0.7,0.3l0.7,0.3l0.7,0.3l0.7,0.4l0.7,0.4
	l0.7,0.5l0.7,0.5l0.7,0.5l0.6,0.6l0.6,0.6l0.6,0.6l0.5,0.7l0.5,0.7l0.5,0.7l0.4,0.7l0.4,0.8l0.4,0.8l0.3,0.8l0.3,0.8l0.2,0.8
	l0.2,0.8l0.2,0.8l0.1,0.8l0.1,0.8v0.8V61v34.1h-0.7h-0.7L94.2,95l-0.7-0.1l-0.7-0.2l-0.7-0.2l-0.7-0.4l-0.7-0.3L90,93.5l-0.7-0.4
	l-0.7-0.4l-0.7-0.5l-0.7-0.5l-0.6-0.5l-0.6-0.6L85.3,90l-0.6-0.6l-0.5-0.7l-0.5-0.6l-0.5-0.7l-0.4-0.7l-0.3-0.8l-0.3-0.8l-0.3-0.8
	l-0.3-0.8l-0.2-0.8l-0.3-0.8l-0.2-0.8l-0.1-0.8l-0.1-0.8v-0.8V43.8h0.7H81.9z M64.7,18.2v-0.8v-0.8l0.1-0.8l0.1-0.8l0.2-0.8l0.2-0.7
	l0.2-0.8l0.3-0.8l0.3-0.8l0.3-0.7l0.4-0.8l0.4-0.7l0.5-0.7l0.5-0.8l0.5-0.7l0.6-0.6l0.6-0.6l0.6-0.6l0.6-0.5l0.7-0.5l0.7-0.5L73.2,3
	l0.7-0.4l0.7-0.3L75.3,2L76,1.7l0.7-0.2l0.7-0.2l0.7-0.1l0.7-0.1h0.7h0.7v34h-0.7l-0.7,0.1l-0.5,0.3l-0.7,0.3l-0.7,0.4l-0.7,0.4
	l-0.7,0.5l-0.6,0.6l-0.6,0.6L73.8,39l-0.4,0.7l-0.3,0.8l-0.3,0.8l-0.2,0.8l-0.1,0.8v0.8v-0.8l-0.2-0.8l-0.2-0.8l-0.2-0.8l-0.3-0.8
	L71.2,39l-0.5-0.7l-0.5-0.6l-0.6-0.6L69,36.6l-0.7-0.4l-0.7-0.4l-0.7-0.3l-0.8-0.2l-0.8-0.1h-0.8L64.7,18.2z M80.5,94.9V129v0.8
	l-0.1,0.8l-0.2,0.8l-0.3,0.8l-0.3,0.8l-0.4,0.7l-0.5,0.7l-0.6,0.6l-0.6,0.6l-0.7,0.5l-0.7,0.4l-0.7,0.4l-0.7,0.3l-0.7,0.2l-0.7,0.1
	h-0.7h-0.7l-0.7-0.1l-0.8-0.1l-0.7-0.3l-0.7-0.4l-0.7-0.4l-0.7-0.5l-0.6-0.6l-0.6-0.6l-0.5-0.7l-0.4-0.7l-0.3-0.8l-0.3-0.8l-0.2-0.8
	l-0.1-0.8v-0.8V95v-0.8l0.1-0.8l0.2-0.8l0.3-0.8l0.3-0.8l0.4-0.7l0.5-0.7l0.6-0.7l0.6-0.6l0.7-0.5l0.7-0.4l0.7-0.3l0.7-0.3l0.7-0.2
	l0.7-0.1h0.7h0.8l0.7,0.1l0.7,0.2l0.7,0.3l0.7,0.3l0.7,0.4l0.7,0.5l0.6,0.6l0.6,0.7l0.5,0.7l0.4,0.7l0.3,0.8l0.3,0.8l0.2,0.8
	l0.1,0.8L80.5,94.9z M48.9,59.3v-0.8l0.1-0.8l0.1-0.8l0.2-0.8l0.2-0.8l0.3-0.8l0.3-0.8l0.3-0.8l0.5-0.8l0.4-0.7l0.5-0.7l0.5-0.7
	l0.5-0.7l0.6-0.6l0.6-0.6l0.6-0.6l0.6-0.5l0.7-0.5l0.7-0.5l0.7-0.4l0.7-0.4l0.7-0.3l0.7-0.2l0.7-0.3l0.7-0.2l0.7-0.2l0.7-0.1
	l0.7-0.1h0.7h0.7v34.8v0.8l-0.1,0.8L64.2,81l0.1,0.8l-0.2,0.8l-0.2,0.8l-0.3,0.8L63.2,85l-0.4,0.8l-0.4,0.8L62,87.3L61.5,88L61,88.7
	l-0.5,0.7L59.9,90l-0.6,0.6l-0.6,0.6l-0.6,0.5l-0.7,0.5l-0.7,0.5L56,93.1l-0.7,0.4l-0.7,0.3l-0.9,0.3L53,94.3l-0.7,0.2l-0.7,0.2
	l-0.7,0.1l-0.7,0.1h-0.7h-0.7V60.1L48.9,59.3z M32.9,1.1h0.7h0.7L35,1.2l0.7,0.1l0.7,0.2l0.7,0.2L37.8,2l0.7,0.3l0.7,0.3L40,3
	l0.7,0.4l0.7,0.5l0.7,0.5l0.6,0.5l0.6,0.6l0.6,0.6l0.6,0.6l0.6,0.7l0.5,0.7l0.5,0.7l0.4,0.7l0.3,0.8l0.3,0.8l0.3,0.8l0.3,0.8
	l0.4,0.8l0.2,0.8l0.2,0.8l0.1,0.8l0.1,0.8v0.8v26.3v0.7l-0.1,0.8l-0.2,0.8l-0.2,0.8l-0.3,0.8l-0.4,0.7L47,49.1l-0.5,0.7l-0.6,0.6
	l-0.7,0.5l-0.7,0.4l-0.7,0.3l-0.7,0.3l-0.7,0.2l-0.7,0.1H41h-0.8l-0.7-0.1l-0.7-0.2L38,51.6l-0.7-0.3l-0.7-0.4l-0.7-0.5l-0.6-0.6
	l-0.5-0.6l-0.6-0.7l-0.4-0.7L33.5,47l-0.2-0.8l-0.2-0.8L33,44.6v-0.8L32.9,1.1z M48.8,103.5v17h-0.7l-0.7,0.1l-0.7,0.2l-0.7,0.3
	l-0.8,0.4l-0.7,0.4l-0.7,0.5l-0.6,0.6l-0.5,0.7l-0.5,0.7l-0.4,0.7l-0.3,0.8l-0.2,0.8l-0.2,0.8l-0.1,0.8v0.8v-0.8l-0.1-0.8l-0.2-0.8
	l-0.3-0.8l-0.3-0.8l-0.4-0.7l-0.5-0.7l-0.5-0.6l-0.6-0.6l-0.6-0.5l-0.7-0.4l-0.7-0.4l-0.8-0.3l-0.8-0.2l-0.8-0.1h-0.8v-17.1h0.8
	l0.8-0.1l0.8-0.2l0.7-0.3l0.7-0.4l0.7-0.4l0.6-0.5l0.6-0.6l0.5-0.6l0.5-0.7L40,99l0.3-0.8l0.3-0.8l0.2-0.8l0.1-0.8V95v0.8l0.1,0.8
	l0.2,0.8l0.3,0.8l0.3,0.8l0.4,0.7l0.5,0.7l0.5,0.6l0.6,0.6l0.7,0.5l0.7,0.4l0.7,0.4l0.7,0.3l0.7,0.2l0.7,0.1H48.8z M18.6,43.8
	l0.7,0.1L20,44l0.7,0.2l0.7,0.2l0.7,0.3l0.7,0.3l0.7,0.3l0.7,0.4l0.7,0.4l0.7,0.5l0.7,0.5l0.6,0.5l0.6,0.6l0.6,0.6l0.6,0.6l0.5,0.7
	l0.5,0.7l0.5,0.7l0.4,0.7L31,53l0.3,0.8l0.3,0.8l0.3,0.8l0.2,0.8l0.2,0.8l0.2,0.8l0.1,0.8l0.1,0.8v0.8v34.9H32h-0.7L30.6,95
	l-0.7-0.1l-0.7-0.2l-0.7-0.2l-0.7-0.4l-0.7-0.3l-0.7-0.3l-0.7-0.4L25,92.7l-0.7-0.5l-0.7-0.5l-0.7-0.5l-0.6-0.6L21.7,90l-0.6-0.6
	l-0.5-0.7l-0.5-0.6l-0.4-0.8l-0.4-0.7l-0.4-0.8L18.5,85l-0.3-0.8l-0.3-0.8l-0.2-0.8l-0.2-0.8L17.3,81l-0.1-0.8l-0.1-0.8v-0.8V43.8
	h0.7H18.6z M1.2,18.2v-0.8v-0.8l0.1-0.8L1.4,15l0.2-0.8l0.2-0.7L2,12.7l0.4-0.8l0.3-0.7L3,10.4l0.4-0.8l0.4-0.7l0.5-0.7l0.5-0.8
	l0.5-0.7l0.6-0.6l0.6-0.6l0.6-0.6l0.7-0.5l0.7-0.5l0.7-0.5L9.9,3l0.7-0.4l0.7-0.3L12,2l0.7-0.3l0.7-0.2l0.7-0.2l0.7-0.1l0.7-0.1h0.7
	h0.8v34h-0.7l-0.7,0.1L15,35.5l-0.7,0.3l-0.7,0.4l-0.7,0.4l-0.7,0.5l-0.6,0.6L11,38.4l-0.5,0.7L10,39.8l-0.3,0.8l-0.2,0.8l-0.2,0.8
	L9.2,43v0.8V43l-0.1-0.8l-0.2-0.8l-0.2-0.9l-0.3-0.8L8,39l-0.5-0.7l-0.6-0.6l-0.6-0.5l-0.6-0.5L5,36.3l-0.7-0.4l-0.8-0.3l-0.7-0.1
	L2,35.3H1.3L1.2,18.2z M1.2,94.9v-0.8l0.1-0.8l0.2-0.8l0.3-0.8l0.4-0.8l0.4-0.7L3,89.5l0.6-0.7l0.6-0.6l0.7-0.5l0.7-0.4L6.3,87
	L7,86.7l0.7-0.1h0.7h0.7h0.7l0.7,0.1l0.7,0.2l0.7,0.3l0.7,0.3l0.7,0.4l0.7,0.5l0.6,0.6l0.6,0.7l0.5,0.7l0.4,0.7l0.3,0.8l0.3,0.8
	l0.2,0.8l0.1,0.8v0.8v34v0.8l-0.1,0.8l-0.2,0.8l-0.3,0.8l-0.3,0.8l-0.4,0.7l-0.5,0.7l-0.6,0.6l-0.6,0.6l-0.7,0.5l-0.7,0.4l-0.7,0.4
	l-0.7,0.3l-0.7,0.2l-0.7,0.1H9.2H8.4l-0.7-0.1L7,137.3L6.3,137l-0.8-0.4l-0.7-0.4l-0.7-0.5l-0.6-0.6L3,134.4l-0.5-0.7L2.1,133
	l-0.3-0.8l-0.3-0.8l-0.2-0.8v-0.8V129L1.2,94.9z M17.1,205.9v0.8v0.8l-0.1,0.8l-0.1,0.8l-0.2,0.8l-0.2,0.8l-0.2,0.8l-0.3,0.8
	l-0.3,0.8l-0.3,0.8l-0.4,0.8l-0.4,0.7l-0.5,0.7l-0.5,0.7l-0.5,0.7l-0.6,0.6l-0.6,0.6l-0.6,0.6l-0.6,0.5l-0.7,0.5l-0.7,0.4l-0.7,0.4
	l-0.7,0.4l-0.7,0.3l-0.7,0.3l-0.7,0.3l-0.8,0.2l-0.7,0.2l-0.7,0.1L2.8,223H2H1.2v-34.1h0.7l0.7-0.1l0.7-0.2l0.7-0.3l0.7-0.4l0.7-0.4
	l0.7-0.5l0.7-0.6l0.6-0.7l0.5-0.7l0.4-0.7l0.3-0.8l0.3-0.8l0.2-0.8l0.1-0.8v-0.8v0.8l0.1,0.8l0.2,0.8l0.3,0.8l0.3,0.8l0.4,0.7
	l0.5,0.7l0.5,0.6l0.6,0.6l0.6,0.5l0.7,0.4l0.7,0.4l0.7,0.3l0.8,0.2l0.8,0.1h0.6V205.9z M32.8,164.7l-0.1,0.8l-0.1,0.8l-0.2,0.8
	l-0.2,0.8l-0.2,0.8l-0.3,0.8l-0.3,0.8l-0.3,0.8l-0.4,0.8l-0.4,0.7l-0.5,0.7l-0.5,0.7l-0.5,0.7l-0.6,0.6l-0.6,0.6l-0.6,0.6l-0.6,0.5
	l-0.7,0.5l-0.7,0.4l-0.7,0.4l-0.7,0.4l-0.7,0.3l-0.7,0.3l-0.7,0.3l-0.7,0.2l-0.7,0.2l-0.7,0.1l-0.7,0.1H18h-0.9v-34.8v-0.8l0.1-0.8
	l0.1-0.8l0.2-0.8l0.2-0.8l0.2-0.8l0.3-0.8l0.3-0.8l0.4-0.8l0.4-0.8l0.4-0.7l0.5-0.7l0.5-0.7l0.5-0.7l0.6-0.6l0.6-0.6l0.6-0.6
	l0.7-0.5l0.7-0.5l0.7-0.5l0.7-0.4l0.7-0.4l0.7-0.3l0.7-0.3l0.7-0.2l0.7-0.2l0.7-0.2l0.7-0.1l0.7-0.1h0.7h0.7V164V164.7z M48.8,223.1
	h-0.7h-0.7l-0.7-0.1l-0.7-0.1l-0.7-0.2l-0.7-0.2l-0.7-0.3l-0.7-0.3l-1-0.3l-0.7-0.4l-0.7-0.4l-0.7-0.4l-0.7-0.5l-0.6-0.5l-0.6-0.6
	l-0.6-0.6l-0.6-0.6l-0.5-0.7l-0.5-0.7l-0.5-0.7l-0.4-0.7l-0.4-0.8l-0.4-0.8l-0.3-0.8l-0.3-0.8l-0.2-0.8l-0.2-0.8l-0.2-0.8l-0.1-0.8
	v-0.8v-0.8v-26.5v-0.7l0.1-0.8l0.2-0.8l0.2-0.8l0.3-0.8l0.4-0.7l0.5-0.7l0.5-0.7l0.6-0.6l0.7-0.5l0.7-0.4l0.7-0.3l0.7-0.3l0.7-0.2
	l0.7-0.1h0.7h0.7l0.7,0.1l0.7,0.2l0.7,0.3l0.7,0.3l0.7,0.4l0.7,0.5l0.6,0.6l0.5,0.7l0.5,0.7l0.4,0.7l0.3,0.8l0.3,0.8l0.2,0.8
	l0.1,0.8v0.8L48.8,223.1z M63.1,180.3l-0.7-0.1l-0.7-0.1l-0.7-0.2l-0.7-0.2l-0.7-0.3l-0.7-0.3l-0.7-0.3l-0.7-0.4l-0.6-0.5l-0.7-0.4
	l-0.7-0.5l-0.6-0.5l-0.6-0.6l-0.6-0.6l-0.6-0.6l-0.5-0.7l-0.5-0.7l-0.5-0.7l-0.4-0.7l-0.4-0.8l-0.3-0.8l-0.3-0.8l-0.4-0.8l-0.2-0.8
	l-0.2-0.8l-0.1-0.8l-0.1-0.8v-0.8v-0.8v-34.9h0.7h0.7l0.7,0.1l0.7,0.1l0.7,0.2l0.7,0.2l0.7,0.2l0.7,0.3l0.7,0.3l0.7,0.4l0.7,0.4
	l0.7,0.5l0.7,0.5l0.6,0.5l0.6,0.6l0.6,0.6l0.6,0.6l0.5,0.7l0.5,0.7l0.5,0.7l0.4,0.7L63,138l0.4,0.8l0.3,0.8l0.3,0.8l0.2,0.8l0.2,0.8
	l0.2,0.8l0.1,0.8l0.1,0.8v0.8v34.9h-0.7L63.1,180.3z M80.4,206v0.8v0.8l-0.1,0.8l-0.1,0.8L80,210l-0.2,0.8l-0.2,0.8l-0.3,0.8
	l-0.3,0.8l-0.4,0.8l-0.4,0.8l-0.4,0.7l-0.5,0.7l-0.5,0.7l-0.5,0.7l-0.6,0.6l-0.6,0.6l-0.6,0.6l-0.7,0.5l-0.7,0.5l-0.7,0.4l-0.7,0.4
	l-0.7,0.4l-0.7,0.3l-0.7,0.3l-0.7,0.3l-0.6,0.1l-0.7,0.2l-0.7,0.1l-0.7,0.1h-0.7h-0.7v-34.1h0.7l0.7-0.1l0.7-0.2l0.7-0.3l0.7-0.4
	l0.7-0.4l0.7-0.5l0.6-0.6l0.5-0.7l0.5-0.7l0.4-0.7l0.3-0.8l0.2-0.8l0.2-0.8l0.1-0.8v-0.8v0.8l0.1,0.8l0.2,0.8l0.3,0.8l0.3,0.8
	l0.4,0.7l0.5,0.7l0.5,0.6l0.6,0.6l0.6,0.5l0.7,0.4l0.7,0.4l0.7,0.3l0.8,0.2l0.8,0.1h0.8L80.4,206z M96.1,164.8l0.1,0.8l-0.1,0.8
	l-0.2,0.8l-0.2,0.8l-0.2,0.8l-0.3,0.8l-0.3,0.8l-0.4,0.8l-0.4,0.8l-0.4,0.7l-0.5,0.7l-0.5,0.7l-0.5,0.6l-0.6,0.6l-0.6,0.6l-0.6,0.6
	l-0.7,0.5l-0.7,0.5l-0.7,0.4l-0.7,0.4l-0.7,0.4l-0.7,0.3l-0.7,0.3l-0.7,0.3l-0.7,0.2l-0.7,0.2l-0.7,0.1l-0.7,0.1h-0.7h-0.7v-34.8
	v-0.8l0.1-0.8l0.1-0.8l0.2-0.8l0.2-0.8l0.2-0.8l0.3-0.8l0.3-0.8l0.3-0.8l0.4-0.8l0.4-0.7l0.5-0.7l0.5-0.7l0.5-0.7l0.6-0.6l0.6-0.6
	l0.6-0.6l0.6-0.5l0.7-0.5l0.7-0.5l0.7-0.4l0.7-0.4l0.7-0.3l0.7-0.3l0.7-0.2l0.7-0.2l0.7-0.2l0.7-0.1l0.7-0.1h0.7h0.7v34.1v0.8
	L96.1,164.8z M112.1,223.1h-0.7h-0.7L110,223l-0.7-0.1l-0.7-0.2l-0.7-0.2l-0.7-0.3l-0.7-0.3l-0.7-0.3l-0.7-0.4l-0.7-0.4l-0.7-0.4
	l-0.7-0.5l-0.7-0.5l-0.6-0.6l-0.6-0.6l-0.6-0.6l-0.5-0.7l-0.5-0.7l-0.5-0.7l-0.4-0.7l-0.4-0.8l-0.3-0.8l-0.3-0.8l-0.3-0.8l-0.2-0.8
	l-0.2-0.8l-0.2-0.9l-0.1-0.8l-0.1-0.8v-0.8v-26.4v-0.7l0.1-0.8l0.2-0.8l0.3-0.8l0.3-0.8l0.4-0.7l0.5-0.7l0.6-0.7l0.6-0.6l0.7-0.5
	l0.7-0.4l0.7-0.3l0.7-0.3l0.7-0.2l0.7-0.1h0.7h0.7l0.7,0.1l0.7,0.2l0.7,0.3l0.7,0.3l0.7,0.4l0.7,0.5l0.6,0.6l0.6,0.7l0.5,0.7
	l0.4,0.7l0.3,0.8l0.3,0.8l0.2,0.8l0.1,0.8v0.8L112.1,223.1z M126.6,180.4l-0.7-0.1l-0.7-0.1l-0.7-0.2l-0.7-0.2l-0.7-0.3l-0.8-0.3
	l-0.7-0.3l-0.7-0.4l-0.7-0.4l-0.7-0.4l-0.7-0.5l-0.7-0.5l-0.6-0.6l-0.6-0.6l-0.6-0.6l-0.5-0.7l-0.5-0.7l-0.5-0.7l-0.4-0.7l-0.4-0.8
	l-0.4-0.8l-0.3-0.8l-0.3-0.8l-0.2-0.8l-0.2-0.8l-0.2-0.8l-0.1-0.8l-0.1-0.8V164v-0.8V129h0.7h0.7l0.7,0.1l0.7,0.1l0.7,0.2l0.7,0.2
	l0.7,0.2l0.7,0.3l0.7,0.3l0.7,0.4l0.7,0.4l0.7,0.5l0.7,0.5l0.6,0.6l0.6,0.6l0.6,0.6l0.6,0.6l0.5,0.7l0.5,0.7l0.5,0.7l0.4,0.7
	l0.4,0.8l0.3,0.8l0.3,0.8l0.3,0.8l0.2,0.8l0.2,0.8l0.2,0.8l0.1,0.8l0.1,0.8v0.8v34.9H127L126.6,180.4z M143.9,206v0.8v0.8l-0.1,0.8
	l-0.1,0.8l-0.2,0.8l-0.2,0.8l-0.2,0.8l-0.3,0.8l-0.3,0.8l-0.3,0.8l-0.4,0.8l-0.4,0.7l-0.5,0.7l-0.5,0.7l-0.5,0.7l-0.6,0.6l-0.6,0.6
	l-0.6,0.6l-0.6,0.5l-0.7,0.5l-0.7,0.4l-0.7,0.4l-0.7,0.4l-0.7,0.3l-0.7,0.3l-0.7,0.3l-0.7,0.2l-0.7,0.2l-0.7,0.1l-0.7,0.1H129h-0.7
	V189h0.7l0.7-0.1l0.7-0.2l0.7-0.3l0.7-0.4l0.7-0.4l0.7-0.5l0.6-0.6l0.6-0.7l0.5-0.7l0.4-0.7l0.3-0.8l0.3-0.8l0.2-0.8l0.1-0.8v-0.8
	v0.8l0.1,0.8l0.2,0.8l0.3,0.8l0.3,0.8l0.4,0.7l0.5,0.7l0.5,0.6l0.6,0.6l0.6,0.5l0.7,0.4l0.7,0.4l0.7,0.3l0.8,0.2l0.8,0.1h0.8
	L143.9,206z M159.6,164.8l-0.1,0.8l-0.1,0.8l-0.1,0.8l-0.2,0.8l-0.2,0.8l-0.3,0.8l-0.3,0.8l-0.3,0.8l-0.4,0.8l-0.4,0.7l-0.5,0.7
	l-0.5,0.7l-0.5,0.7l-0.6,0.6l-0.6,0.6l-0.6,0.6l-0.6,0.5l-0.7,0.5l-0.7,0.4l-0.7,0.4l-0.7,0.4l-0.7,0.3l-0.7,0.3l-0.7,0.3l-0.7,0.2
	l-0.7,0.2l-0.7,0.1l-0.7,0.1h-1h-0.7v-34.9v-0.8l0.1-0.8l0.1-0.8l0.2-0.8l0.2-0.8l0.2-0.8l0.3-0.8l0.3-0.8l0.4-0.8l0.4-0.8l0.4-0.7
	l0.5-0.7l0.5-0.7l0.5-0.7l0.6-0.6l0.6-0.6l0.6-0.6l0.6-0.5l0.7-0.5l0.7-0.5l0.7-0.4l0.7-0.4l0.7-0.3l0.7-0.3l0.7-0.2l0.7-0.2
	l0.7-0.2l0.7-0.1l0.7-0.1h0.7h0.7V164L159.6,164.8z M175.5,223.2h-0.7h-0.7l-0.7-0.1l-0.7-0.1l-0.7-0.4l-0.7-0.2l-0.7-0.3l-0.7-0.3
	l-0.7-0.3l-0.7-0.4l-0.7-0.4l-0.7-0.4l-0.7-0.5l-0.6-0.5l-0.6-0.6l-0.6-0.6l-0.6-0.6l-0.5-0.7l-0.5-0.7l-0.5-0.7l-0.4-0.7l-0.4-0.8
	l-0.3-0.8l-0.3-0.8l-0.3-0.8l-0.2-0.8l-0.2-0.8l-0.2-0.8l-0.1-0.8l-0.1-0.8v-0.8v-26.3v-0.8l0.1-0.8l0.2-0.8l0.2-0.8l0.3-0.8
	l0.4-0.7l0.5-0.7l0.5-0.7l0.6-0.6l0.7-0.5l0.7-0.4l0.7-0.3l0.7-0.3l0.7-0.2l0.7-0.1h0.7h0.7l0.7,0.1l0.7,0.2l0.7,0.3l0.7,0.3
	l0.7,0.4l0.7,0.5l0.6,0.6l0.5,0.7l0.5,0.7l0.4,0.7l0.3,0.8l0.2,0.8l0.2,0.8l0.1,0.8v0.8L175.5,223.2z M189.9,180.4l-0.7-0.1
	l-0.7-0.1l-0.7-0.2l-0.7-0.2l-0.7-0.3l-0.7-0.3l-0.7-0.3l-0.7-0.4l-0.7-0.4l-0.7-0.4l-0.7-0.5l-0.6-0.5L181,176l-0.6-0.6l-0.6-0.6
	l-0.5-0.7l-0.5-0.7l-0.5-0.7l-0.4-0.7l-0.4-0.8l-0.3-0.8l-0.3-0.8l-0.3-0.8l-0.2-0.8l-0.2-0.8l-0.2-0.8l-0.1-0.8l-0.1-0.8V164v-35.1
	h0.7h0.7l0.7,0.1l0.7,0.1l0.7,0.2l0.7,0.2l0.7,0.2l0.7,0.3l0.7,0.3l0.7,0.4l0.7,0.4l0.7,0.5l0.7,0.5l0.6,0.5l0.6,0.6l0.6,0.6
	l0.6,0.6l0.5,0.7l0.5,0.7l0.5,0.7l0.4,0.7l0.4,0.8l0.4,0.8l0.3,0.8l0.3,0.8l0.2,0.8l0.2,0.8l0.2,0.8l0.1,0.8l0.1,0.8v0.8v34.9h-0.7
	L189.9,180.4z M207.2,206.1v0.8v0.8l-0.1,0.8l-0.1,0.8l-0.2,0.8l-0.2,0.8l-0.2,0.8l-0.3,0.8l-0.3,0.8l-0.4,0.8l-0.4,0.8l-0.4,0.7
	l-0.5,0.7l-0.5,0.7l-0.5,0.7l-0.6,0.6l-0.6,0.6l-0.6,0.6l-0.7,0.5l-0.7,0.5l-0.7,0.4l-0.7,0.4l-0.7,0.4l-0.7,0.3l-0.7,0.3l-0.7,0.3
	l-0.7,0.2l-0.7,0.2l-0.7,0.1l-0.7,0.1h-0.7h-0.7V189h0.7l0.7-0.1l0.7-0.2l0.7-0.3l0.7-0.4l0.7-0.4l0.7-0.5l0.6-0.6l0.5-0.7l0.5-0.7
	l0.4-0.7l0.3-0.8l0.2-0.8l0.2-0.8l0.1-0.8v-0.8v0.8l0.1,0.8l0.2,0.8l0.3,0.8l0.3,0.8l0.4,0.7l0.5,0.7l0.5,0.6l0.6,0.6l0.6,0.5
	l0.7,0.4l0.7,0.4l0.8,0.3l0.8,0.2l0.8,0.1h0.8L207.2,206.1z M222.9,165.7l-0.1,0.8l-0.2,0.8l-0.2,0.8l-0.2,0.8l-0.3,0.8l-0.3,0.8
	l-0.4,0.8l-0.4,0.8l-0.4,0.7l-0.5,0.7l-0.5,0.7l-0.5,0.7l-0.6,0.6l-0.6,0.6l-0.6,0.6l-0.7,0.5l-0.7,0.5l-0.7,0.4l-0.7,0.4l-0.7,0.4
	l-0.7,0.3l-0.7,0.3l-0.7,0.3l-0.7,0.2l-0.7,0.2l-0.7,0.1l-0.7,0.1h-0.7h-0.7v-35v-0.8l0.1-0.8l0.1-0.8l0.2-0.8l0.2-0.8l0.2-0.8
	l0.3-0.8l0.3-0.8l0.3-0.8l0.4-0.8l0.4-0.7l0.5-0.7l0.5-0.7l0.5-0.7l0.6-0.6l0.6-0.6l0.6-0.6l0.7-0.5l0.7-0.5l0.7-0.5l0.7-0.4
	l0.7-0.4l0.7-0.3l0.7-0.3l0.7-0.2l0.7-0.2l0.7-0.2l0.7-0.1l0.7-0.1h0.7h0.7V164v0.9L222.9,165.7z M238.8,223.2h-0.7h-0.7l-0.7-0.1
	L236,223l-0.7-0.2l-0.7-0.2l-0.7-0.3l-0.7-0.3l-0.7-0.3l-0.8-0.6l-0.8-0.5l-0.7-0.4l-0.7-0.5l-0.7-0.5l-0.6-0.6l-0.6-0.6l-0.6-0.6
	l-0.5-0.7L226,216l-0.5-0.7l-0.4-0.7l-0.4-0.8l-0.4-0.8l-0.3-0.8l-0.3-0.8l-0.2-0.8l-0.2-0.8l-0.2-0.8l-0.1-0.8l-0.1-0.8v-0.8v-0.8
	v-25.5v-0.7l0.1-0.8l0.2-0.8l0.3-0.8l0.3-0.8l0.4-0.7l0.5-0.7l0.6-0.7l0.6-0.6l0.7-0.5l0.7-0.4l0.7-0.3l0.7-0.3l0.7-0.2l0.7-0.1h0.7
	h0.7l0.7,0.1l0.7,0.2l0.7,0.3l0.7,0.3l0.7,0.4l0.7,0.5l0.6,0.6l0.6,0.7l0.5,0.7l0.4,0.7l0.3,0.8l0.3,0.8l0.2,0.8l0.1,0.8v0.8
	L238.8,223.2z M254.7,180.6H254h-0.7l-0.7-0.1l-0.7-0.1l-0.7-0.2l-0.7-0.2l-0.7-0.3l-0.7-0.3l-0.7-0.3l-0.7-0.4l-0.7-0.4l-0.7-0.4
	l-0.7-0.5l-0.7-0.5l-0.6-0.6l-0.6-0.6l-0.6-0.9l-0.4-0.7l-0.5-0.7l-0.5-0.7l-0.4-0.7l-0.4-0.8l-0.4-0.8l-0.3-0.8l-0.3-0.8l-0.2-0.8
	l-0.2-0.8l-0.2-0.8l-0.1-0.8l-0.1-0.8v-0.8V129h0.7h0.7l0.7,0.1l0.7,0.1l0.7,0.2l0.7,0.2l0.7,0.2l0.7,0.3l0.7,0.3l0.7,0.4l0.7,0.4
	l0.7,0.5l0.7,0.5l0.7,0.5l0.6,0.6l0.6,0.6l0.6,0.6l0.5,0.7l0.5,0.7l0.5,0.7l0.4,0.7l0.4,0.8l0.3,0.8l0.3,0.8l0.3,0.8l0.2,0.8
	l0.2,0.8l0.2,0.8l0.1,0.8l0.1,0.8v0.8v34.9L254.7,180.6z M254.7,78.1v0.8v0.8l-0.1,0.8l-0.1,0.8l-0.2,0.8l-0.2,0.8l-0.2,0.8
	l-0.3,0.8l-0.3,0.8l-0.3,0.8l-0.4,0.8l-0.4,0.7l-0.5,0.7l-0.5,0.7l-0.5,0.7l-0.6,0.6l-0.6,0.6l-0.6,0.6l-0.7,0.5l-0.7,0.5l-0.7,0.5
	l-0.7,0.4l-0.7,0.4l-0.7,0.3l-0.7,0.3l-0.7,0.2l-0.7,0.2l-0.7,0.2l-0.7,0.1l-0.7,0.1h-0.7h-0.8v-35v-0.8l0.1-0.8l0.1-0.8l0.2-0.8
	l0.2-0.8l0.2-0.8l0.2-0.9l0.3-0.8l0.4-0.8l0.4-0.8l0.4-0.7l0.5-0.7l0.5-0.7l0.5-0.7l0.6-0.6l0.6-0.6l0.6-0.6l0.7-0.5l0.7-0.5
	l0.7-0.5l0.7-0.4l0.7-0.4l0.7-0.3l0.7-0.3l0.7-0.3l0.7-0.2l0.7-0.2l0.7-0.1l0.7-0.1h0.7h0.7L254.7,78.1z"/>
</svg>
